<?xml version="1.0" encoding="UTF-8"?>
<svg xmlns="http://www.w3.org/2000/svg" xmlns:xlink="http://www.w3.org/1999/xlink" width="720pt" height="720pt" viewBox="0 0 720 720" version="1.2">
<g id="surface1">
<path style="fill:none;stroke-width:7.5;stroke-linecap:round;stroke-linejoin:round;stroke:rgb(0%,0%,0%);stroke-opacity:1;stroke-miterlimit:10;" d="M 4396.210938 1930.585938 L 4015.3125 1149.6875 " transform="matrix(0.1,0,0,-0.1,0,720)"/>
<path style="fill:none;stroke-width:7.5;stroke-linecap:round;stroke-linejoin:round;stroke:rgb(0%,0%,0%);stroke-opacity:1;stroke-miterlimit:10;" d="M 4448.28125 2013.007812 L 5071.71875 2796.09375 " transform="matrix(0.1,0,0,-0.1,0,720)"/>
<path style="fill:none;stroke-width:7.5;stroke-linecap:round;stroke-linejoin:round;stroke:rgb(0%,0%,0%);stroke-opacity:1;stroke-miterlimit:10;" d="M 4369.6875 1965 L 3749.882812 1839.882812 " transform="matrix(0.1,0,0,-0.1,0,720)"/>
<path style="fill:none;stroke-width:7.5;stroke-linecap:round;stroke-linejoin:round;stroke:rgb(0%,0%,0%);stroke-opacity:1;stroke-miterlimit:10;" d="M 4422.109375 1925.78125 L 4460.507812 1493.789062 " transform="matrix(0.1,0,0,-0.1,0,720)"/>
<path style="fill:none;stroke-width:7.5;stroke-linecap:round;stroke-linejoin:round;stroke:rgb(0%,0%,0%);stroke-opacity:1;stroke-miterlimit:10;" d="M 4369.101562 1968.59375 L 4014.882812 1924.296875 " transform="matrix(0.1,0,0,-0.1,0,720)"/>
<path style="fill:none;stroke-width:7.5;stroke-linecap:round;stroke-linejoin:round;stroke:rgb(0%,0%,0%);stroke-opacity:1;stroke-miterlimit:10;" d="M 4450.507812 2011.210938 L 4756.914062 2352.382812 " transform="matrix(0.1,0,0,-0.1,0,720)"/>
<path style="fill:none;stroke-width:7.5;stroke-linecap:round;stroke-linejoin:round;stroke:rgb(0%,0%,0%);stroke-opacity:1;stroke-miterlimit:10;" d="M 3040.585938 818.398438 L 2675.507812 1090 " transform="matrix(0.1,0,0,-0.1,0,720)"/>
<path style="fill:none;stroke-width:7.5;stroke-linecap:round;stroke-linejoin:round;stroke:rgb(0%,0%,0%);stroke-opacity:1;stroke-miterlimit:10;" d="M 3126.484375 804.6875 L 3927.304688 1072.5 " transform="matrix(0.1,0,0,-0.1,0,720)"/>
<path style="fill:none;stroke-width:7.5;stroke-linecap:round;stroke-linejoin:round;stroke:rgb(0%,0%,0%);stroke-opacity:1;stroke-miterlimit:10;" d="M 3127.617188 777.695312 L 3443.398438 702.109375 " transform="matrix(0.1,0,0,-0.1,0,720)"/>
<path style="fill:none;stroke-width:7.5;stroke-linecap:round;stroke-linejoin:round;stroke:rgb(0%,0%,0%);stroke-opacity:1;stroke-miterlimit:10;" d="M 3031.484375 781.40625 L 2515.507812 699.296875 " transform="matrix(0.1,0,0,-0.1,0,720)"/>
<path style="fill:none;stroke-width:7.5;stroke-linecap:round;stroke-linejoin:round;stroke:rgb(0%,0%,0%);stroke-opacity:1;stroke-miterlimit:10;" d="M 3091.914062 741.601562 L 3186.210938 366.796875 " transform="matrix(0.1,0,0,-0.1,0,720)"/>
<path style="fill:none;stroke-width:7.5;stroke-linecap:round;stroke-linejoin:round;stroke:rgb(0%,0%,0%);stroke-opacity:1;stroke-miterlimit:10;" d="M 3042.5 757.5 L 2667.890625 440.507812 " transform="matrix(0.1,0,0,-0.1,0,720)"/>
<path style="fill:none;stroke-width:7.5;stroke-linecap:round;stroke-linejoin:round;stroke:rgb(0%,0%,0%);stroke-opacity:1;stroke-miterlimit:10;" d="M 1913.28125 5225.117188 L 1395.585938 4878.515625 " transform="matrix(0.1,0,0,-0.1,0,720)"/>
<path style="fill:none;stroke-width:7.5;stroke-linecap:round;stroke-linejoin:round;stroke:rgb(0%,0%,0%);stroke-opacity:1;stroke-miterlimit:10;" d="M 1978.203125 5295.117188 L 2256.289062 5787.617188 " transform="matrix(0.1,0,0,-0.1,0,720)"/>
<path style="fill:none;stroke-width:7.5;stroke-linecap:round;stroke-linejoin:round;stroke:rgb(0%,0%,0%);stroke-opacity:1;stroke-miterlimit:10;" d="M 1995.78125 5226.601562 L 2328.398438 5020.507812 " transform="matrix(0.1,0,0,-0.1,0,720)"/>
<path style="fill:none;stroke-width:7.5;stroke-linecap:round;stroke-linejoin:round;stroke:rgb(0%,0%,0%);stroke-opacity:1;stroke-miterlimit:10;" d="M 4373.59375 4044.21875 L 4771.210938 3807.5 " transform="matrix(0.1,0,0,-0.1,0,720)"/>
<path style="fill:none;stroke-width:7.5;stroke-linecap:round;stroke-linejoin:round;stroke:rgb(0%,0%,0%);stroke-opacity:1;stroke-miterlimit:10;" d="M 1338.007812 4794.296875 L 1262.8125 4040.507812 " transform="matrix(0.1,0,0,-0.1,0,720)"/>
<path style="fill:none;stroke-width:7.5;stroke-linecap:round;stroke-linejoin:round;stroke:rgb(0%,0%,0%);stroke-opacity:1;stroke-miterlimit:10;" d="M 1344.414062 4892.1875 L 1358.398438 5314.414062 " transform="matrix(0.1,0,0,-0.1,0,720)"/>
<path style="fill:none;stroke-width:7.5;stroke-linecap:round;stroke-linejoin:round;stroke:rgb(0%,0%,0%);stroke-opacity:1;stroke-miterlimit:10;" d="M 1305.507812 4875 L 970.898438 5160.507812 " transform="matrix(0.1,0,0,-0.1,0,720)"/>
<path style="fill:none;stroke-width:7.5;stroke-linecap:round;stroke-linejoin:round;stroke:rgb(0%,0%,0%);stroke-opacity:1;stroke-miterlimit:10;" d="M 1293.789062 4846.09375 L 878.203125 4871.40625 " transform="matrix(0.1,0,0,-0.1,0,720)"/>
<path style="fill:none;stroke-width:7.5;stroke-linecap:round;stroke-linejoin:round;stroke:rgb(0%,0%,0%);stroke-opacity:1;stroke-miterlimit:10;" d="M 6116.289062 3176.71875 L 5840.78125 2478.398438 " transform="matrix(0.1,0,0,-0.1,0,720)"/>
<path style="fill:none;stroke-width:7.5;stroke-linecap:round;stroke-linejoin:round;stroke:rgb(0%,0%,0%);stroke-opacity:1;stroke-miterlimit:10;" d="M 6154.21875 3267.1875 L 6474.414062 3986.914062 " transform="matrix(0.1,0,0,-0.1,0,720)"/>
<path style="fill:none;stroke-width:7.5;stroke-linecap:round;stroke-linejoin:round;stroke:rgb(0%,0%,0%);stroke-opacity:1;stroke-miterlimit:10;" d="M 6088.203125 3205.390625 L 5170.78125 2867.695312 " transform="matrix(0.1,0,0,-0.1,0,720)"/>
<path style="fill:none;stroke-width:7.5;stroke-linecap:round;stroke-linejoin:round;stroke:rgb(0%,0%,0%);stroke-opacity:1;stroke-miterlimit:10;" d="M 6094.882812 3193.085938 L 5671.71875 2878.28125 " transform="matrix(0.1,0,0,-0.1,0,720)"/>
<path style="fill:none;stroke-width:7.5;stroke-linecap:round;stroke-linejoin:round;stroke:rgb(0%,0%,0%);stroke-opacity:1;stroke-miterlimit:10;" d="M 6159.296875 3180.117188 L 6390 2790 " transform="matrix(0.1,0,0,-0.1,0,720)"/>
<path style="fill:none;stroke-width:7.5;stroke-linecap:round;stroke-linejoin:round;stroke:rgb(0%,0%,0%);stroke-opacity:1;stroke-miterlimit:10;" d="M 6182.5 3231.210938 L 6832.617188 3350.3125 " transform="matrix(0.1,0,0,-0.1,0,720)"/>
<path style="fill:none;stroke-width:7.5;stroke-linecap:round;stroke-linejoin:round;stroke:rgb(0%,0%,0%);stroke-opacity:1;stroke-miterlimit:10;" d="M 6172.5 3191.484375 L 6688.984375 2774.609375 " transform="matrix(0.1,0,0,-0.1,0,720)"/>
<path style="fill:none;stroke-width:7.5;stroke-linecap:round;stroke-linejoin:round;stroke:rgb(0%,0%,0%);stroke-opacity:1;stroke-miterlimit:10;" d="M 6172.109375 3253.59375 L 6617.695312 3621.40625 " transform="matrix(0.1,0,0,-0.1,0,720)"/>
<path style="fill:none;stroke-width:7.5;stroke-linecap:round;stroke-linejoin:round;stroke:rgb(0%,0%,0%);stroke-opacity:1;stroke-miterlimit:10;" d="M 6133.085938 3271.40625 L 6123.398438 3681.71875 " transform="matrix(0.1,0,0,-0.1,0,720)"/>
<path style="fill:none;stroke-width:7.5;stroke-linecap:round;stroke-linejoin:round;stroke:rgb(0%,0%,0%);stroke-opacity:1;stroke-miterlimit:10;" d="M 6180.117188 3204.6875 L 6599.609375 3042.8125 " transform="matrix(0.1,0,0,-0.1,0,720)"/>
<path style="fill:none;stroke-width:7.5;stroke-linecap:round;stroke-linejoin:round;stroke:rgb(0%,0%,0%);stroke-opacity:1;stroke-miterlimit:10;" d="M 6118.28125 3268.710938 L 5910.585938 3872.304688 " transform="matrix(0.1,0,0,-0.1,0,720)"/>
<path style="fill:none;stroke-width:7.5;stroke-linecap:round;stroke-linejoin:round;stroke:rgb(0%,0%,0%);stroke-opacity:1;stroke-miterlimit:10;" d="M 6100.507812 3258.007812 L 5798.710938 3576.71875 " transform="matrix(0.1,0,0,-0.1,0,720)"/>
<path style="fill:none;stroke-width:7.5;stroke-linecap:round;stroke-linejoin:round;stroke:rgb(0%,0%,0%);stroke-opacity:1;stroke-miterlimit:10;" d="M 4225.585938 6585.703125 L 4123.710938 6834.882812 " transform="matrix(0.1,0,0,-0.1,0,720)"/>
<path style="fill:none;stroke-width:7.5;stroke-linecap:round;stroke-linejoin:round;stroke:rgb(0%,0%,0%);stroke-opacity:1;stroke-miterlimit:10;" d="M 5827.109375 2371.289062 L 5957.5 1721.09375 " transform="matrix(0.1,0,0,-0.1,0,720)"/>
<path style="fill:none;stroke-width:7.5;stroke-linecap:round;stroke-linejoin:round;stroke:rgb(0%,0%,0%);stroke-opacity:1;stroke-miterlimit:10;" d="M 5775.507812 2444.804688 L 5165.507812 2813.007812 " transform="matrix(0.1,0,0,-0.1,0,720)"/>
<path style="fill:none;stroke-width:7.5;stroke-linecap:round;stroke-linejoin:round;stroke:rgb(0%,0%,0%);stroke-opacity:1;stroke-miterlimit:10;" d="M 5798.984375 2464.882812 L 5655.117188 2818.984375 " transform="matrix(0.1,0,0,-0.1,0,720)"/>
<path style="fill:none;stroke-width:7.5;stroke-linecap:round;stroke-linejoin:round;stroke:rgb(0%,0%,0%);stroke-opacity:1;stroke-miterlimit:10;" d="M 5856.289062 2389.414062 L 6284.492188 2057.8125 " transform="matrix(0.1,0,0,-0.1,0,720)"/>
<path style="fill:none;stroke-width:7.5;stroke-linecap:round;stroke-linejoin:round;stroke:rgb(0%,0%,0%);stroke-opacity:1;stroke-miterlimit:10;" d="M 5807.617188 2371.289062 L 5728.984375 1987.1875 " transform="matrix(0.1,0,0,-0.1,0,720)"/>
<path style="fill:none;stroke-width:7.5;stroke-linecap:round;stroke-linejoin:round;stroke:rgb(0%,0%,0%);stroke-opacity:1;stroke-miterlimit:10;" d="M 4840.117188 3728.203125 L 5092.617188 2906.484375 " transform="matrix(0.1,0,0,-0.1,0,720)"/>
<path style="fill:none;stroke-width:7.5;stroke-linecap:round;stroke-linejoin:round;stroke:rgb(0%,0%,0%);stroke-opacity:1;stroke-miterlimit:10;" d="M 4811.40625 3821.992188 L 4654.6875 4336.09375 " transform="matrix(0.1,0,0,-0.1,0,720)"/>
<path style="fill:none;stroke-width:7.5;stroke-linecap:round;stroke-linejoin:round;stroke:rgb(0%,0%,0%);stroke-opacity:1;stroke-miterlimit:10;" d="M 4846.40625 3819.492188 L 5056.796875 4271.015625 " transform="matrix(0.1,0,0,-0.1,0,720)"/>
<path style="fill:none;stroke-width:7.5;stroke-linecap:round;stroke-linejoin:round;stroke:rgb(0%,0%,0%);stroke-opacity:1;stroke-miterlimit:10;" d="M 2333.398438 5860.195312 L 2901.210938 6073.90625 " transform="matrix(0.1,0,0,-0.1,0,720)"/>
<path style="fill:none;stroke-width:7.5;stroke-linecap:round;stroke-linejoin:round;stroke:rgb(0%,0%,0%);stroke-opacity:1;stroke-miterlimit:10;" d="M 2242.1875 5861.71875 L 1879.21875 6012.695312 " transform="matrix(0.1,0,0,-0.1,0,720)"/>
<path style="fill:none;stroke-width:7.5;stroke-linecap:round;stroke-linejoin:round;stroke:rgb(0%,0%,0%);stroke-opacity:1;stroke-miterlimit:10;" d="M 2265.585938 5886.796875 L 2093.398438 6231.914062 " transform="matrix(0.1,0,0,-0.1,0,720)"/>
<path style="fill:none;stroke-width:7.5;stroke-linecap:round;stroke-linejoin:round;stroke:rgb(0%,0%,0%);stroke-opacity:1;stroke-miterlimit:10;" d="M 1208.59375 3987.8125 L 756.289062 4087.382812 " transform="matrix(0.1,0,0,-0.1,0,720)"/>
<path style="fill:none;stroke-width:7.5;stroke-linecap:round;stroke-linejoin:round;stroke:rgb(0%,0%,0%);stroke-opacity:1;stroke-miterlimit:10;" d="M 1301.796875 3996.210938 L 1659.6875 4145.507812 " transform="matrix(0.1,0,0,-0.1,0,720)"/>
<path style="fill:none;stroke-width:7.5;stroke-linecap:round;stroke-linejoin:round;stroke:rgb(0%,0%,0%);stroke-opacity:1;stroke-miterlimit:10;" d="M 1211.015625 3958.984375 L 677.617188 3745.117188 " transform="matrix(0.1,0,0,-0.1,0,720)"/>
<path style="fill:none;stroke-width:7.5;stroke-linecap:round;stroke-linejoin:round;stroke:rgb(0%,0%,0%);stroke-opacity:1;stroke-miterlimit:10;" d="M 1294.6875 3946.40625 L 1478.28125 3797.890625 " transform="matrix(0.1,0,0,-0.1,0,720)"/>
<path style="fill:none;stroke-width:7.5;stroke-linecap:round;stroke-linejoin:round;stroke:rgb(0%,0%,0%);stroke-opacity:1;stroke-miterlimit:10;" d="M 1304.492188 3966.992188 L 1799.882812 3860 " transform="matrix(0.1,0,0,-0.1,0,720)"/>
<path style="fill:none;stroke-width:7.5;stroke-linecap:round;stroke-linejoin:round;stroke:rgb(0%,0%,0%);stroke-opacity:1;stroke-miterlimit:10;" d="M 1286.09375 3938.203125 L 1599.101562 3523.90625 " transform="matrix(0.1,0,0,-0.1,0,720)"/>
<path style="fill:none;stroke-width:7.5;stroke-linecap:round;stroke-linejoin:round;stroke:rgb(0%,0%,0%);stroke-opacity:1;stroke-miterlimit:10;" d="M 1246.289062 3929.296875 L 1172.382812 3582.5 " transform="matrix(0.1,0,0,-0.1,0,720)"/>
<path style="fill:none;stroke-width:7.5;stroke-linecap:round;stroke-linejoin:round;stroke:rgb(0%,0%,0%);stroke-opacity:1;stroke-miterlimit:10;" d="M 1263.007812 3928.710938 L 1335.898438 3381.09375 " transform="matrix(0.1,0,0,-0.1,0,720)"/>
<path style="fill:none;stroke-width:7.5;stroke-linecap:round;stroke-linejoin:round;stroke:rgb(0%,0%,0%);stroke-opacity:1;stroke-miterlimit:10;" d="M 1457.382812 1505.195312 L 1508.085938 1178.085938 " transform="matrix(0.1,0,0,-0.1,0,720)"/>
<path style="fill:none;stroke-width:7.5;stroke-linecap:round;stroke-linejoin:round;stroke:rgb(0%,0%,0%);stroke-opacity:1;stroke-miterlimit:10;" d="M 1408.90625 1580.585938 L 1084.101562 1794.414062 " transform="matrix(0.1,0,0,-0.1,0,720)"/>
<path style="fill:none;stroke-width:7.5;stroke-linecap:round;stroke-linejoin:round;stroke:rgb(0%,0%,0%);stroke-opacity:1;stroke-miterlimit:10;" d="M 1409.21875 1526.210938 L 1201.210938 1385.78125 " transform="matrix(0.1,0,0,-0.1,0,720)"/>
<path style="fill:none;stroke-width:7.5;stroke-linecap:round;stroke-linejoin:round;stroke:rgb(0%,0%,0%);stroke-opacity:1;stroke-miterlimit:10;" d="M 5231.601562 6184.492188 L 5106.796875 6465.195312 " transform="matrix(0.1,0,0,-0.1,0,720)"/>
<path style="fill:none;stroke-width:7.5;stroke-linecap:round;stroke-linejoin:round;stroke:rgb(0%,0%,0%);stroke-opacity:1;stroke-miterlimit:10;" d="M 5203.085938 6147.695312 L 4900 6198.515625 " transform="matrix(0.1,0,0,-0.1,0,720)"/>
<path style="fill:none;stroke-width:7.5;stroke-linecap:round;stroke-linejoin:round;stroke:rgb(0%,0%,0%);stroke-opacity:1;stroke-miterlimit:10;" d="M 5280.117188 6099.804688 L 5466.40625 5840.117188 " transform="matrix(0.1,0,0,-0.1,0,720)"/>
<path style="fill:none;stroke-width:7.5;stroke-linecap:round;stroke-linejoin:round;stroke:rgb(0%,0%,0%);stroke-opacity:1;stroke-miterlimit:10;" d="M 6062.304688 1234.21875 L 5983.515625 1596.796875 " transform="matrix(0.1,0,0,-0.1,0,720)"/>
<path style="fill:none;stroke-width:7.5;stroke-linecap:round;stroke-linejoin:round;stroke:rgb(0%,0%,0%);stroke-opacity:1;stroke-miterlimit:10;" d="M 3085.507812 2156.484375 L 3631.992188 1857.8125 " transform="matrix(0.1,0,0,-0.1,0,720)"/>
<path style="fill:none;stroke-width:7.5;stroke-linecap:round;stroke-linejoin:round;stroke:rgb(0%,0%,0%);stroke-opacity:1;stroke-miterlimit:10;" d="M 3019.414062 2223.398438 L 2815.78125 2606.484375 " transform="matrix(0.1,0,0,-0.1,0,720)"/>
<path style="fill:none;stroke-width:7.5;stroke-linecap:round;stroke-linejoin:round;stroke:rgb(0%,0%,0%);stroke-opacity:1;stroke-miterlimit:10;" d="M 2993.984375 2172.5 L 2583.28125 2108.28125 " transform="matrix(0.1,0,0,-0.1,0,720)"/>
<path style="fill:none;stroke-width:7.5;stroke-linecap:round;stroke-linejoin:round;stroke:rgb(0%,0%,0%);stroke-opacity:1;stroke-miterlimit:10;" d="M 3968.984375 1138.085938 L 3711.601562 1768.59375 " transform="matrix(0.1,0,0,-0.1,0,720)"/>
<path style="fill:none;stroke-width:7.5;stroke-linecap:round;stroke-linejoin:round;stroke:rgb(0%,0%,0%);stroke-opacity:1;stroke-miterlimit:10;" d="M 3948.984375 1062.1875 L 3511.796875 717.1875 " transform="matrix(0.1,0,0,-0.1,0,720)"/>
<path style="fill:none;stroke-width:7.5;stroke-linecap:round;stroke-linejoin:round;stroke:rgb(0%,0%,0%);stroke-opacity:1;stroke-miterlimit:10;" d="M 4026.601562 1122.304688 L 4432.890625 1431.484375 " transform="matrix(0.1,0,0,-0.1,0,720)"/>
<path style="fill:none;stroke-width:7.5;stroke-linecap:round;stroke-linejoin:round;stroke:rgb(0%,0%,0%);stroke-opacity:1;stroke-miterlimit:10;" d="M 4033.789062 1076.289062 L 4530.507812 901.484375 " transform="matrix(0.1,0,0,-0.1,0,720)"/>
<path style="fill:none;stroke-width:7.5;stroke-linecap:round;stroke-linejoin:round;stroke:rgb(0%,0%,0%);stroke-opacity:1;stroke-miterlimit:10;" d="M 3983.398438 1043.710938 L 3934.101562 462.1875 " transform="matrix(0.1,0,0,-0.1,0,720)"/>
<path style="fill:none;stroke-width:7.5;stroke-linecap:round;stroke-linejoin:round;stroke:rgb(0%,0%,0%);stroke-opacity:1;stroke-miterlimit:10;" d="M 3958.28125 1131.992188 L 3744.414062 1420.507812 " transform="matrix(0.1,0,0,-0.1,0,720)"/>
<path style="fill:none;stroke-width:7.5;stroke-linecap:round;stroke-linejoin:round;stroke:rgb(0%,0%,0%);stroke-opacity:1;stroke-miterlimit:10;" d="M 4023.203125 1058.984375 L 4506.71875 603.90625 " transform="matrix(0.1,0,0,-0.1,0,720)"/>
<path style="fill:none;stroke-width:7.5;stroke-linecap:round;stroke-linejoin:round;stroke:rgb(0%,0%,0%);stroke-opacity:1;stroke-miterlimit:10;" d="M 4014.804688 1051.914062 L 4250.703125 700.117188 " transform="matrix(0.1,0,0,-0.1,0,720)"/>
<path style="fill:none;stroke-width:7.5;stroke-linecap:round;stroke-linejoin:round;stroke:rgb(0%,0%,0%);stroke-opacity:1;stroke-miterlimit:10;" d="M 684.6875 4052.890625 L 631.09375 3783.710938 " transform="matrix(0.1,0,0,-0.1,0,720)"/>
<path style="fill:none;stroke-width:7.5;stroke-linecap:round;stroke-linejoin:round;stroke:rgb(0%,0%,0%);stroke-opacity:1;stroke-miterlimit:10;" d="M 6134.882812 5259.492188 L 6416.796875 5309.6875 " transform="matrix(0.1,0,0,-0.1,0,720)"/>
<path style="fill:none;stroke-width:7.5;stroke-linecap:round;stroke-linejoin:round;stroke:rgb(0%,0%,0%);stroke-opacity:1;stroke-miterlimit:10;" d="M 6520.117188 4089.6875 L 6703.789062 4503.007812 " transform="matrix(0.1,0,0,-0.1,0,720)"/>
<path style="fill:none;stroke-width:7.5;stroke-linecap:round;stroke-linejoin:round;stroke:rgb(0%,0%,0%);stroke-opacity:1;stroke-miterlimit:10;" d="M 2977.617188 6142.304688 L 3137.382812 6575.195312 " transform="matrix(0.1,0,0,-0.1,0,720)"/>
<path style="fill:none;stroke-width:7.5;stroke-linecap:round;stroke-linejoin:round;stroke:rgb(0%,0%,0%);stroke-opacity:1;stroke-miterlimit:10;" d="M 3002.304688 6070.3125 L 3390.703125 5828.28125 " transform="matrix(0.1,0,0,-0.1,0,720)"/>
<path style="fill:none;stroke-width:7.5;stroke-linecap:round;stroke-linejoin:round;stroke:rgb(0%,0%,0%);stroke-opacity:1;stroke-miterlimit:10;" d="M 3006.914062 6112.617188 L 3424.101562 6260.585938 " transform="matrix(0.1,0,0,-0.1,0,720)"/>
<path style="fill:none;stroke-width:7.5;stroke-linecap:round;stroke-linejoin:round;stroke:rgb(0%,0%,0%);stroke-opacity:1;stroke-miterlimit:10;" d="M 2935.195312 6138.203125 L 2725.3125 6485.507812 " transform="matrix(0.1,0,0,-0.1,0,720)"/>
<path style="fill:none;stroke-width:7.5;stroke-linecap:round;stroke-linejoin:round;stroke:rgb(0%,0%,0%);stroke-opacity:1;stroke-miterlimit:10;" d="M 2963.710938 6047.304688 L 2989.296875 5640.78125 " transform="matrix(0.1,0,0,-0.1,0,720)"/>
<path style="fill:none;stroke-width:7.5;stroke-linecap:round;stroke-linejoin:round;stroke:rgb(0%,0%,0%);stroke-opacity:1;stroke-miterlimit:10;" d="M 4400.195312 3115.390625 L 5051.914062 2868.28125 " transform="matrix(0.1,0,0,-0.1,0,720)"/>
<path style="fill:none;stroke-width:7.5;stroke-linecap:round;stroke-linejoin:round;stroke:rgb(0%,0%,0%);stroke-opacity:1;stroke-miterlimit:10;" d="M 4315.3125 3162.5 L 3927.1875 3457.695312 " transform="matrix(0.1,0,0,-0.1,0,720)"/>
<path style="fill:none;stroke-width:7.5;stroke-linecap:round;stroke-linejoin:round;stroke:rgb(0%,0%,0%);stroke-opacity:1;stroke-miterlimit:10;" d="M 4305.3125 3135.703125 L 3842.382812 3163.203125 " transform="matrix(0.1,0,0,-0.1,0,720)"/>
<path style="fill:none;stroke-width:7.5;stroke-linecap:round;stroke-linejoin:round;stroke:rgb(0%,0%,0%);stroke-opacity:1;stroke-miterlimit:10;" d="M 1697.695312 4125.390625 L 1554.296875 3815.507812 " transform="matrix(0.1,0,0,-0.1,0,720)"/>
<path style="fill:none;stroke-width:7.5;stroke-linecap:round;stroke-linejoin:round;stroke:rgb(0%,0%,0%);stroke-opacity:1;stroke-miterlimit:10;" d="M 1738.203125 4125.117188 L 1836.09375 3904.609375 " transform="matrix(0.1,0,0,-0.1,0,720)"/>
<path style="fill:none;stroke-width:7.5;stroke-linecap:round;stroke-linejoin:round;stroke:rgb(0%,0%,0%);stroke-opacity:1;stroke-miterlimit:10;" d="M 5160.3125 2846.71875 L 5601.601562 2854.414062 " transform="matrix(0.1,0,0,-0.1,0,720)"/>
<path style="fill:none;stroke-width:7.5;stroke-linecap:round;stroke-linejoin:round;stroke:rgb(0%,0%,0%);stroke-opacity:1;stroke-miterlimit:10;" d="M 5082.890625 2805.703125 L 4805.390625 2413.085938 " transform="matrix(0.1,0,0,-0.1,0,720)"/>
<path style="fill:none;stroke-width:7.5;stroke-linecap:round;stroke-linejoin:round;stroke:rgb(0%,0%,0%);stroke-opacity:1;stroke-miterlimit:10;" d="M 590.195312 3681.484375 L 351.601562 3346.289062 " transform="matrix(0.1,0,0,-0.1,0,720)"/>
<path style="fill:none;stroke-width:7.5;stroke-linecap:round;stroke-linejoin:round;stroke:rgb(0%,0%,0%);stroke-opacity:1;stroke-miterlimit:10;" d="M 706.992188 2035 L 1018.710938 1836.71875 " transform="matrix(0.1,0,0,-0.1,0,720)"/>
<path style="fill:none;stroke-width:7.5;stroke-linecap:round;stroke-linejoin:round;stroke:rgb(0%,0%,0%);stroke-opacity:1;stroke-miterlimit:10;" d="M 705.898438 2089.296875 L 913.59375 2233.085938 " transform="matrix(0.1,0,0,-0.1,0,720)"/>
<path style="fill:none;stroke-width:7.5;stroke-linecap:round;stroke-linejoin:round;stroke:rgb(0%,0%,0%);stroke-opacity:1;stroke-miterlimit:10;" d="M 1575.117188 3770.507812 L 1800.585938 3830.3125 " transform="matrix(0.1,0,0,-0.1,0,720)"/>
<path style="fill:none;stroke-width:7.5;stroke-linecap:round;stroke-linejoin:round;stroke:rgb(0%,0%,0%);stroke-opacity:1;stroke-miterlimit:10;" d="M 1544.21875 3711.796875 L 1609.414062 3529.492188 " transform="matrix(0.1,0,0,-0.1,0,720)"/>
<path style="fill:none;stroke-width:7.5;stroke-linecap:round;stroke-linejoin:round;stroke:rgb(0%,0%,0%);stroke-opacity:1;stroke-miterlimit:10;" d="M 1485.3125 3733.085938 L 1197.8125 3564.21875 " transform="matrix(0.1,0,0,-0.1,0,720)"/>
<path style="fill:none;stroke-width:7.5;stroke-linecap:round;stroke-linejoin:round;stroke:rgb(0%,0%,0%);stroke-opacity:1;stroke-miterlimit:10;" d="M 1507.5 3713.203125 L 1356.992188 3378.085938 " transform="matrix(0.1,0,0,-0.1,0,720)"/>
<path style="fill:none;stroke-width:7.5;stroke-linecap:round;stroke-linejoin:round;stroke:rgb(0%,0%,0%);stroke-opacity:1;stroke-miterlimit:10;" d="M 1834.414062 3806.015625 L 1644.414062 3525.117188 " transform="matrix(0.1,0,0,-0.1,0,720)"/>
<path style="fill:none;stroke-width:7.5;stroke-linecap:round;stroke-linejoin:round;stroke:rgb(0%,0%,0%);stroke-opacity:1;stroke-miterlimit:10;" d="M 3734.414062 1842.304688 L 3939.21875 1907.617188 " transform="matrix(0.1,0,0,-0.1,0,720)"/>
<path style="fill:none;stroke-width:7.5;stroke-linecap:round;stroke-linejoin:round;stroke:rgb(0%,0%,0%);stroke-opacity:1;stroke-miterlimit:10;" d="M 3466.09375 673.789062 L 3219.804688 359.6875 " transform="matrix(0.1,0,0,-0.1,0,720)"/>
<path style="fill:none;stroke-width:7.5;stroke-linecap:round;stroke-linejoin:round;stroke:rgb(0%,0%,0%);stroke-opacity:1;stroke-miterlimit:10;" d="M 6434.296875 2756.015625 L 6680.3125 2751.015625 " transform="matrix(0.1,0,0,-0.1,0,720)"/>
<path style="fill:none;stroke-width:7.5;stroke-linecap:round;stroke-linejoin:round;stroke:rgb(0%,0%,0%);stroke-opacity:1;stroke-miterlimit:10;" d="M 6425.507812 2775.3125 L 6611.09375 2998.90625 " transform="matrix(0.1,0,0,-0.1,0,720)"/>
<path style="fill:none;stroke-width:7.5;stroke-linecap:round;stroke-linejoin:round;stroke:rgb(0%,0%,0%);stroke-opacity:1;stroke-miterlimit:10;" d="M 1598.203125 3495.585938 L 1203.007812 3540.117188 " transform="matrix(0.1,0,0,-0.1,0,720)"/>
<path style="fill:none;stroke-width:7.5;stroke-linecap:round;stroke-linejoin:round;stroke:rgb(0%,0%,0%);stroke-opacity:1;stroke-miterlimit:10;" d="M 1600.898438 3481.289062 L 1375.390625 3360.898438 " transform="matrix(0.1,0,0,-0.1,0,720)"/>
<path style="fill:none;stroke-width:7.5;stroke-linecap:round;stroke-linejoin:round;stroke:rgb(0%,0%,0%);stroke-opacity:1;stroke-miterlimit:10;" d="M 4564.6875 864.179688 L 4538.984375 615.898438 " transform="matrix(0.1,0,0,-0.1,0,720)"/>
<path style="fill:none;stroke-width:7.5;stroke-linecap:round;stroke-linejoin:round;stroke:rgb(0%,0%,0%);stroke-opacity:1;stroke-miterlimit:10;" d="M 4547.617188 873.90625 L 4303.515625 691.09375 " transform="matrix(0.1,0,0,-0.1,0,720)"/>
<path style="fill:none;stroke-width:7.5;stroke-linecap:round;stroke-linejoin:round;stroke:rgb(0%,0%,0%);stroke-opacity:1;stroke-miterlimit:10;" d="M 1493.515625 1153.007812 L 1201.601562 1342.8125 " transform="matrix(0.1,0,0,-0.1,0,720)"/>
<path style="fill:none;stroke-width:7.5;stroke-linecap:round;stroke-linejoin:round;stroke:rgb(0%,0%,0%);stroke-opacity:1;stroke-miterlimit:10;" d="M 3889.296875 3457.695312 L 3814.492188 3202.890625 " transform="matrix(0.1,0,0,-0.1,0,720)"/>
<path style="fill:none;stroke-width:7.5;stroke-linecap:round;stroke-linejoin:round;stroke:rgb(0%,0%,0%);stroke-opacity:1;stroke-miterlimit:10;" d="M 933.710938 5162.5 L 851.484375 4910.703125 " transform="matrix(0.1,0,0,-0.1,0,720)"/>
<path style="fill:none;stroke-width:7.5;stroke-linecap:round;stroke-linejoin:round;stroke:rgb(0%,0%,0%);stroke-opacity:1;stroke-miterlimit:10;" d="M 3964.492188 1897.890625 L 3739.882812 1486.015625 " transform="matrix(0.1,0,0,-0.1,0,720)"/>
<path style="fill:none;stroke-width:7.5;stroke-linecap:round;stroke-linejoin:round;stroke:rgb(0%,0%,0%);stroke-opacity:1;stroke-miterlimit:10;" d="M 1045.78125 1839.6875 L 954.6875 2217.382812 " transform="matrix(0.1,0,0,-0.1,0,720)"/>
<path style="fill:none;stroke-width:7.5;stroke-linecap:round;stroke-linejoin:round;stroke:rgb(0%,0%,0%);stroke-opacity:1;stroke-miterlimit:10;" d="M 1057.8125 1792.109375 L 1159.101562 1401.71875 " transform="matrix(0.1,0,0,-0.1,0,720)"/>
<path style="fill:none;stroke-width:7.5;stroke-linecap:round;stroke-linejoin:round;stroke:rgb(0%,0%,0%);stroke-opacity:1;stroke-miterlimit:10;" d="M 2489.296875 671.992188 L 2618.59375 448.984375 " transform="matrix(0.1,0,0,-0.1,0,720)"/>
<path style="fill:none;stroke-width:7.5;stroke-linecap:round;stroke-linejoin:round;stroke:rgb(0%,0%,0%);stroke-opacity:1;stroke-miterlimit:10;" d="M 6712.1875 2773.710938 L 6647.109375 2991.484375 " transform="matrix(0.1,0,0,-0.1,0,720)"/>
<path style="fill:none;stroke-width:7.5;stroke-linecap:round;stroke-linejoin:round;stroke:rgb(0%,0%,0%);stroke-opacity:1;stroke-miterlimit:10;" d="M 5076.015625 6481.40625 L 4885.507812 6235.703125 " transform="matrix(0.1,0,0,-0.1,0,720)"/>
<path style="fill:none;stroke-width:7.5;stroke-linecap:round;stroke-linejoin:round;stroke:rgb(0%,0%,0%);stroke-opacity:1;stroke-miterlimit:10;" d="M 6103.710938 3736.40625 L 5927.695312 3884.101562 " transform="matrix(0.1,0,0,-0.1,0,720)"/>
<path style="fill:none;stroke-width:7.5;stroke-linecap:round;stroke-linejoin:round;stroke:rgb(0%,0%,0%);stroke-opacity:1;stroke-miterlimit:10;" d="M 6099.21875 3713.007812 L 5808.789062 3617.109375 " transform="matrix(0.1,0,0,-0.1,0,720)"/>
<path style="fill:none;stroke-width:7.5;stroke-linecap:round;stroke-linejoin:round;stroke:rgb(0%,0%,0%);stroke-opacity:1;stroke-miterlimit:10;" d="M 1860.390625 6045.195312 L 2048.789062 6238.90625 " transform="matrix(0.1,0,0,-0.1,0,720)"/>
<path style="fill:none;stroke-width:7.5;stroke-linecap:round;stroke-linejoin:round;stroke:rgb(0%,0%,0%);stroke-opacity:1;stroke-miterlimit:10;" d="M 1180.390625 3526.015625 L 1315.390625 3371.796875 " transform="matrix(0.1,0,0,-0.1,0,720)"/>
<path style="fill:none;stroke-width:7.5;stroke-linecap:round;stroke-linejoin:round;stroke:rgb(0%,0%,0%);stroke-opacity:1;stroke-miterlimit:10;" d="M 4511.914062 585.195312 L 4309.21875 655.117188 " transform="matrix(0.1,0,0,-0.1,0,720)"/>
<path style="fill:none;stroke-width:7.5;stroke-linecap:round;stroke-linejoin:round;stroke:rgb(0%,0%,0%);stroke-opacity:1;stroke-miterlimit:10;" d="M 5888.515625 3886.40625 L 5786.796875 3640.898438 " transform="matrix(0.1,0,0,-0.1,0,720)"/>
<path style="fill-rule:nonzero;fill:rgb(0%,0%,100%);fill-opacity:1;stroke-width:7.5;stroke-linecap:round;stroke-linejoin:round;stroke:rgb(0%,0%,0%);stroke-opacity:1;stroke-miterlimit:10;" d="M 4466.914062 1974.6875 C 4466.914062 2001.796875 4444.921875 2023.789062 4417.8125 2023.789062 C 4390.703125 2023.789062 4368.710938 2001.796875 4368.710938 1974.6875 C 4368.710938 1947.578125 4390.703125 1925.585938 4417.8125 1925.585938 C 4444.921875 1925.585938 4466.914062 1947.578125 4466.914062 1974.6875 " transform="matrix(0.1,0,0,-0.1,0,720)"/>
<path style="fill-rule:nonzero;fill:rgb(0%,0%,100%);fill-opacity:1;stroke-width:7.5;stroke-linecap:round;stroke-linejoin:round;stroke:rgb(0%,0%,0%);stroke-opacity:1;stroke-miterlimit:10;" d="M 3128.984375 789.101562 C 3128.984375 816.210938 3106.992188 838.203125 3079.882812 838.203125 C 3052.773438 838.203125 3030.78125 816.210938 3030.78125 789.101562 C 3030.78125 761.992188 3052.773438 740 3079.882812 740 C 3106.992188 740 3128.984375 761.992188 3128.984375 789.101562 " transform="matrix(0.1,0,0,-0.1,0,720)"/>
<path style="fill-rule:nonzero;fill:rgb(0%,0%,100%);fill-opacity:1;stroke-width:7.5;stroke-linecap:round;stroke-linejoin:round;stroke:rgb(0%,0%,0%);stroke-opacity:1;stroke-miterlimit:10;" d="M 3057.8125 4193.90625 C 3057.8125 4221.015625 3035.820312 4243.007812 3008.710938 4243.007812 C 2981.601562 4243.007812 2959.609375 4221.015625 2959.609375 4193.90625 C 2959.609375 4166.796875 2981.601562 4144.804688 3008.710938 4144.804688 C 3035.820312 4144.804688 3057.8125 4166.796875 3057.8125 4193.90625 " transform="matrix(0.1,0,0,-0.1,0,720)"/>
<path style="fill-rule:nonzero;fill:rgb(0%,0%,100%);fill-opacity:1;stroke-width:7.5;stroke-linecap:round;stroke-linejoin:round;stroke:rgb(0%,0%,0%);stroke-opacity:1;stroke-miterlimit:10;" d="M 2003.203125 5252.382812 C 2003.203125 5279.492188 1981.210938 5301.484375 1954.101562 5301.484375 C 1926.992188 5301.484375 1905 5279.492188 1905 5252.382812 C 1905 5225.273438 1926.992188 5203.28125 1954.101562 5203.28125 C 1981.210938 5203.28125 2003.203125 5225.273438 2003.203125 5252.382812 " transform="matrix(0.1,0,0,-0.1,0,720)"/>
<path style="fill-rule:nonzero;fill:rgb(0%,0%,100%);fill-opacity:1;stroke-width:7.5;stroke-linecap:round;stroke-linejoin:round;stroke:rgb(0%,0%,0%);stroke-opacity:1;stroke-miterlimit:10;" d="M 4380.507812 4069.21875 C 4380.507812 4096.328125 4358.515625 4118.28125 4331.40625 4118.28125 C 4304.296875 4118.28125 4282.304688 4096.328125 4282.304688 4069.21875 C 4282.304688 4042.109375 4304.296875 4020.117188 4331.40625 4020.117188 C 4358.515625 4020.117188 4380.507812 4042.109375 4380.507812 4069.21875 " transform="matrix(0.1,0,0,-0.1,0,720)"/>
<path style="fill-rule:nonzero;fill:rgb(0%,0%,100%);fill-opacity:1;stroke-width:7.5;stroke-linecap:round;stroke-linejoin:round;stroke:rgb(0%,0%,0%);stroke-opacity:1;stroke-miterlimit:10;" d="M 2673.710938 1127.890625 C 2673.710938 1155 2651.71875 1176.992188 2624.609375 1176.992188 C 2597.5 1176.992188 2575.507812 1155 2575.507812 1127.890625 C 2575.507812 1100.78125 2597.5 1078.789062 2624.609375 1078.789062 C 2651.71875 1078.789062 2673.710938 1100.78125 2673.710938 1127.890625 " transform="matrix(0.1,0,0,-0.1,0,720)"/>
<path style="fill-rule:nonzero;fill:rgb(0%,0%,100%);fill-opacity:1;stroke-width:7.5;stroke-linecap:round;stroke-linejoin:round;stroke:rgb(0%,0%,0%);stroke-opacity:1;stroke-miterlimit:10;" d="M 3640.507812 4862.304688 C 3640.507812 4889.414062 3618.515625 4911.40625 3591.40625 4911.40625 C 3564.296875 4911.40625 3542.304688 4889.414062 3542.304688 4862.304688 C 3542.304688 4835.195312 3564.296875 4813.203125 3591.40625 4813.203125 C 3618.515625 4813.203125 3640.507812 4835.195312 3640.507812 4862.304688 " transform="matrix(0.1,0,0,-0.1,0,720)"/>
<path style="fill-rule:nonzero;fill:rgb(0%,0%,100%);fill-opacity:1;stroke-width:7.5;stroke-linecap:round;stroke-linejoin:round;stroke:rgb(0%,0%,0%);stroke-opacity:1;stroke-miterlimit:10;" d="M 1391.914062 4843.203125 C 1391.914062 4870.3125 1369.921875 4892.304688 1342.8125 4892.304688 C 1315.703125 4892.304688 1293.710938 4870.3125 1293.710938 4843.203125 C 1293.710938 4816.09375 1315.703125 4794.101562 1342.8125 4794.101562 C 1369.921875 4794.101562 1391.914062 4816.09375 1391.914062 4843.203125 " transform="matrix(0.1,0,0,-0.1,0,720)"/>
<path style="fill-rule:nonzero;fill:rgb(0%,0%,100%);fill-opacity:1;stroke-width:7.5;stroke-linecap:round;stroke-linejoin:round;stroke:rgb(0%,0%,0%);stroke-opacity:1;stroke-miterlimit:10;" d="M 6183.398438 3222.304688 C 6183.398438 3249.414062 6161.40625 3271.40625 6134.296875 3271.40625 C 6107.1875 3271.40625 6085.195312 3249.414062 6085.195312 3222.304688 C 6085.195312 3195.195312 6107.1875 3173.203125 6134.296875 3173.203125 C 6161.40625 3173.203125 6183.398438 3195.195312 6183.398438 3222.304688 " transform="matrix(0.1,0,0,-0.1,0,720)"/>
<path style="fill-rule:nonzero;fill:rgb(0%,0%,100%);fill-opacity:1;stroke-width:7.5;stroke-linecap:round;stroke-linejoin:round;stroke:rgb(0%,0%,0%);stroke-opacity:1;stroke-miterlimit:10;" d="M 4293.28125 6540.3125 C 4293.28125 6567.421875 4271.328125 6589.414062 4244.21875 6589.414062 C 4217.109375 6589.414062 4195.117188 6567.421875 4195.117188 6540.3125 C 4195.117188 6513.203125 4217.109375 6491.210938 4244.21875 6491.210938 C 4271.328125 6491.210938 4293.28125 6513.203125 4293.28125 6540.3125 " transform="matrix(0.1,0,0,-0.1,0,720)"/>
<path style="fill-rule:nonzero;fill:rgb(0%,0%,100%);fill-opacity:1;stroke-width:7.5;stroke-linecap:round;stroke-linejoin:round;stroke:rgb(0%,0%,0%);stroke-opacity:1;stroke-miterlimit:10;" d="M 5866.601562 2419.414062 C 5866.601562 2446.523438 5844.609375 2468.515625 5817.5 2468.515625 C 5790.390625 2468.515625 5768.398438 2446.523438 5768.398438 2419.414062 C 5768.398438 2392.304688 5790.390625 2370.3125 5817.5 2370.3125 C 5844.609375 2370.3125 5866.601562 2392.304688 5866.601562 2419.414062 " transform="matrix(0.1,0,0,-0.1,0,720)"/>
<path style="fill-rule:nonzero;fill:rgb(0%,0%,100%);fill-opacity:1;stroke-width:7.5;stroke-linecap:round;stroke-linejoin:round;stroke:rgb(0%,0%,0%);stroke-opacity:1;stroke-miterlimit:10;" d="M 4874.804688 3775.117188 C 4874.804688 3802.226562 4852.8125 3824.21875 4825.703125 3824.21875 C 4798.59375 3824.21875 4776.601562 3802.226562 4776.601562 3775.117188 C 4776.601562 3748.007812 4798.59375 3726.015625 4825.703125 3726.015625 C 4852.8125 3726.015625 4874.804688 3748.007812 4874.804688 3775.117188 " transform="matrix(0.1,0,0,-0.1,0,720)"/>
<path style="fill-rule:nonzero;fill:rgb(0%,0%,100%);fill-opacity:1;stroke-width:7.5;stroke-linecap:round;stroke-linejoin:round;stroke:rgb(0%,0%,0%);stroke-opacity:1;stroke-miterlimit:10;" d="M 2336.601562 5842.890625 C 2336.601562 5870 2314.609375 5891.992188 2287.5 5891.992188 C 2260.390625 5891.992188 2238.398438 5870 2238.398438 5842.890625 C 2238.398438 5815.78125 2260.390625 5793.789062 2287.5 5793.789062 C 2314.609375 5793.789062 2336.601562 5815.78125 2336.601562 5842.890625 " transform="matrix(0.1,0,0,-0.1,0,720)"/>
<path style="fill-rule:nonzero;fill:rgb(0%,0%,100%);fill-opacity:1;stroke-width:7.5;stroke-linecap:round;stroke-linejoin:round;stroke:rgb(0%,0%,0%);stroke-opacity:1;stroke-miterlimit:10;" d="M 1305.585938 3977.304688 C 1305.585938 4004.414062 1283.59375 4026.40625 1256.484375 4026.40625 C 1229.375 4026.40625 1207.382812 4004.414062 1207.382812 3977.304688 C 1207.382812 3950.195312 1229.375 3928.203125 1256.484375 3928.203125 C 1283.59375 3928.203125 1305.585938 3950.195312 1305.585938 3977.304688 " transform="matrix(0.1,0,0,-0.1,0,720)"/>
<path style="fill-rule:nonzero;fill:rgb(0%,0%,100%);fill-opacity:1;stroke-width:7.5;stroke-linecap:round;stroke-linejoin:round;stroke:rgb(0%,0%,0%);stroke-opacity:1;stroke-miterlimit:10;" d="M 1498.984375 1553.710938 C 1498.984375 1580.820312 1476.992188 1602.8125 1449.882812 1602.8125 C 1422.773438 1602.8125 1400.78125 1580.820312 1400.78125 1553.710938 C 1400.78125 1526.601562 1422.773438 1504.609375 1449.882812 1504.609375 C 1476.992188 1504.609375 1498.984375 1526.601562 1498.984375 1553.710938 " transform="matrix(0.1,0,0,-0.1,0,720)"/>
<path style="fill-rule:nonzero;fill:rgb(0%,0%,100%);fill-opacity:1;stroke-width:7.5;stroke-linecap:round;stroke-linejoin:round;stroke:rgb(0%,0%,0%);stroke-opacity:1;stroke-miterlimit:10;" d="M 5300.585938 6139.609375 C 5300.585938 6166.71875 5278.59375 6188.710938 5251.484375 6188.710938 C 5224.375 6188.710938 5202.382812 6166.71875 5202.382812 6139.609375 C 5202.382812 6112.5 5224.375 6090.507812 5251.484375 6090.507812 C 5278.59375 6090.507812 5300.585938 6112.5 5300.585938 6139.609375 " transform="matrix(0.1,0,0,-0.1,0,720)"/>
<path style="fill-rule:nonzero;fill:rgb(0%,0%,100%);fill-opacity:1;stroke-width:7.5;stroke-linecap:round;stroke-linejoin:round;stroke:rgb(0%,0%,0%);stroke-opacity:1;stroke-miterlimit:10;" d="M 6121.914062 1186.210938 C 6121.914062 1213.320312 6099.921875 1235.3125 6072.8125 1235.3125 C 6045.703125 1235.3125 6023.710938 1213.320312 6023.710938 1186.210938 C 6023.710938 1159.101562 6045.703125 1137.109375 6072.8125 1137.109375 C 6099.921875 1137.109375 6121.914062 1159.101562 6121.914062 1186.210938 " transform="matrix(0.1,0,0,-0.1,0,720)"/>
<path style="fill-rule:nonzero;fill:rgb(0%,0%,100%);fill-opacity:1;stroke-width:7.5;stroke-linecap:round;stroke-linejoin:round;stroke:rgb(0%,0%,0%);stroke-opacity:1;stroke-miterlimit:10;" d="M 3091.484375 2180.117188 C 3091.484375 2207.226562 3069.492188 2229.21875 3042.382812 2229.21875 C 3015.273438 2229.21875 2993.28125 2207.226562 2993.28125 2180.117188 C 2993.28125 2153.007812 3015.273438 2131.015625 3042.382812 2131.015625 C 3069.492188 2131.015625 3091.484375 2153.007812 3091.484375 2180.117188 " transform="matrix(0.1,0,0,-0.1,0,720)"/>
<path style="fill-rule:nonzero;fill:rgb(0%,0%,100%);fill-opacity:1;stroke-width:7.5;stroke-linecap:round;stroke-linejoin:round;stroke:rgb(0%,0%,0%);stroke-opacity:1;stroke-miterlimit:10;" d="M 1850 2389.101562 C 1850 2416.210938 1828.007812 2438.203125 1800.898438 2438.203125 C 1773.789062 2438.203125 1751.796875 2416.210938 1751.796875 2389.101562 C 1751.796875 2361.992188 1773.789062 2340 1800.898438 2340 C 1828.007812 2340 1850 2361.992188 1850 2389.101562 " transform="matrix(0.1,0,0,-0.1,0,720)"/>
<path style="fill-rule:nonzero;fill:rgb(0%,0%,100%);fill-opacity:1;stroke-width:7.5;stroke-linecap:round;stroke-linejoin:round;stroke:rgb(0%,0%,0%);stroke-opacity:1;stroke-miterlimit:10;" d="M 4036.601562 1092.617188 C 4036.601562 1119.726562 4014.609375 1141.71875 3987.5 1141.71875 C 3960.390625 1141.71875 3938.398438 1119.726562 3938.398438 1092.617188 C 3938.398438 1065.507812 3960.390625 1043.515625 3987.5 1043.515625 C 4014.609375 1043.515625 4036.601562 1065.507812 4036.601562 1092.617188 " transform="matrix(0.1,0,0,-0.1,0,720)"/>
<path style="fill-rule:nonzero;fill:rgb(0%,0%,100%);fill-opacity:1;stroke-width:7.5;stroke-linecap:round;stroke-linejoin:round;stroke:rgb(0%,0%,0%);stroke-opacity:1;stroke-miterlimit:10;" d="M 743.398438 4101.015625 C 743.398438 4128.125 721.40625 4150.117188 694.296875 4150.117188 C 667.1875 4150.117188 645.195312 4128.125 645.195312 4101.015625 C 645.195312 4073.90625 667.1875 4051.914062 694.296875 4051.914062 C 721.40625 4051.914062 743.398438 4073.90625 743.398438 4101.015625 " transform="matrix(0.1,0,0,-0.1,0,720)"/>
<path style="fill-rule:nonzero;fill:rgb(0%,0%,100%);fill-opacity:1;stroke-width:7.5;stroke-linecap:round;stroke-linejoin:round;stroke:rgb(0%,0%,0%);stroke-opacity:1;stroke-miterlimit:10;" d="M 6019.101562 1658.789062 C 6019.101562 1685.898438 5997.109375 1707.890625 5970 1707.890625 C 5942.890625 1707.890625 5920.898438 1685.898438 5920.898438 1658.789062 C 5920.898438 1631.679688 5942.890625 1609.6875 5970 1609.6875 C 5997.109375 1609.6875 6019.101562 1631.679688 6019.101562 1658.789062 " transform="matrix(0.1,0,0,-0.1,0,720)"/>
<path style="fill-rule:nonzero;fill:rgb(0%,0%,100%);fill-opacity:1;stroke-width:7.5;stroke-linecap:round;stroke-linejoin:round;stroke:rgb(0%,0%,0%);stroke-opacity:1;stroke-miterlimit:10;" d="M 6135.703125 5250.898438 C 6135.703125 5278.007812 6113.710938 5300 6086.601562 5300 C 6059.492188 5300 6037.5 5278.007812 6037.5 5250.898438 C 6037.5 5223.789062 6059.492188 5201.796875 6086.601562 5201.796875 C 6113.710938 5201.796875 6135.703125 5223.789062 6135.703125 5250.898438 " transform="matrix(0.1,0,0,-0.1,0,720)"/>
<path style="fill-rule:nonzero;fill:rgb(0%,0%,100%);fill-opacity:1;stroke-width:7.5;stroke-linecap:round;stroke-linejoin:round;stroke:rgb(0%,0%,0%);stroke-opacity:1;stroke-miterlimit:10;" d="M 6549.296875 4044.882812 C 6549.296875 4071.992188 6527.304688 4093.984375 6500.195312 4093.984375 C 6473.085938 4093.984375 6451.09375 4071.992188 6451.09375 4044.882812 C 6451.09375 4017.773438 6473.085938 3995.78125 6500.195312 3995.78125 C 6527.304688 3995.78125 6549.296875 4017.773438 6549.296875 4044.882812 " transform="matrix(0.1,0,0,-0.1,0,720)"/>
<path style="fill-rule:nonzero;fill:rgb(0%,0%,100%);fill-opacity:1;stroke-width:7.5;stroke-linecap:round;stroke-linejoin:round;stroke:rgb(0%,0%,0%);stroke-opacity:1;stroke-miterlimit:10;" d="M 3009.6875 6096.210938 C 3009.6875 6123.320312 2987.695312 6145.3125 2960.585938 6145.3125 C 2933.476562 6145.3125 2911.484375 6123.320312 2911.484375 6096.210938 C 2911.484375 6069.101562 2933.476562 6047.109375 2960.585938 6047.109375 C 2987.695312 6047.109375 3009.6875 6069.101562 3009.6875 6096.210938 " transform="matrix(0.1,0,0,-0.1,0,720)"/>
<path style="fill-rule:nonzero;fill:rgb(0%,0%,100%);fill-opacity:1;stroke-width:7.5;stroke-linecap:round;stroke-linejoin:round;stroke:rgb(0%,0%,0%);stroke-opacity:1;stroke-miterlimit:10;" d="M 4403.398438 3132.8125 C 4403.398438 3159.921875 4381.40625 3181.914062 4354.296875 3181.914062 C 4327.1875 3181.914062 4305.195312 3159.921875 4305.195312 3132.8125 C 4305.195312 3105.703125 4327.1875 3083.710938 4354.296875 3083.710938 C 4381.40625 3083.710938 4403.398438 3105.703125 4403.398438 3132.8125 " transform="matrix(0.1,0,0,-0.1,0,720)"/>
<path style="fill-rule:nonzero;fill:rgb(0%,0%,100%);fill-opacity:1;stroke-width:7.5;stroke-linecap:round;stroke-linejoin:round;stroke:rgb(0%,0%,0%);stroke-opacity:1;stroke-miterlimit:10;" d="M 5604.414062 563.007812 C 5604.414062 590.117188 5582.421875 612.109375 5555.3125 612.109375 C 5528.203125 612.109375 5506.210938 590.117188 5506.210938 563.007812 C 5506.210938 535.898438 5528.203125 513.90625 5555.3125 513.90625 C 5582.421875 513.90625 5604.414062 535.898438 5604.414062 563.007812 " transform="matrix(0.1,0,0,-0.1,0,720)"/>
<path style="fill-rule:nonzero;fill:rgb(0%,0%,100%);fill-opacity:1;stroke-width:7.5;stroke-linecap:round;stroke-linejoin:round;stroke:rgb(0%,0%,0%);stroke-opacity:1;stroke-miterlimit:10;" d="M 1767.382812 4169.882812 C 1767.382812 4196.992188 1745.390625 4218.984375 1718.28125 4218.984375 C 1691.171875 4218.984375 1669.21875 4196.992188 1669.21875 4169.882812 C 1669.21875 4142.773438 1691.171875 4120.78125 1718.28125 4120.78125 C 1745.390625 4120.78125 1767.382812 4142.773438 1767.382812 4169.882812 " transform="matrix(0.1,0,0,-0.1,0,720)"/>
<path style="fill-rule:nonzero;fill:rgb(0%,0%,100%);fill-opacity:1;stroke-width:7.5;stroke-linecap:round;stroke-linejoin:round;stroke:rgb(0%,0%,0%);stroke-opacity:1;stroke-miterlimit:10;" d="M 5035.117188 5294.6875 C 5035.117188 5321.796875 5013.125 5343.789062 4986.015625 5343.789062 C 4958.90625 5343.789062 4936.914062 5321.796875 4936.914062 5294.6875 C 4936.914062 5267.578125 4958.90625 5245.585938 4986.015625 5245.585938 C 5013.125 5245.585938 5035.117188 5267.578125 5035.117188 5294.6875 " transform="matrix(0.1,0,0,-0.1,0,720)"/>
<path style="fill-rule:nonzero;fill:rgb(0%,0%,100%);fill-opacity:1;stroke-width:7.5;stroke-linecap:round;stroke-linejoin:round;stroke:rgb(0%,0%,0%);stroke-opacity:1;stroke-miterlimit:10;" d="M 6162.5 5968.59375 C 6162.5 5995.703125 6140.507812 6017.695312 6113.398438 6017.695312 C 6086.289062 6017.695312 6064.296875 5995.703125 6064.296875 5968.59375 C 6064.296875 5941.484375 6086.289062 5919.492188 6113.398438 5919.492188 C 6140.507812 5919.492188 6162.5 5941.484375 6162.5 5968.59375 " transform="matrix(0.1,0,0,-0.1,0,720)"/>
<path style="fill-rule:nonzero;fill:rgb(0%,0%,100%);fill-opacity:1;stroke-width:7.5;stroke-linecap:round;stroke-linejoin:round;stroke:rgb(0%,0%,0%);stroke-opacity:1;stroke-miterlimit:10;" d="M 5160.3125 2845.78125 C 5160.3125 2872.890625 5138.320312 2894.882812 5111.210938 2894.882812 C 5084.101562 2894.882812 5062.109375 2872.890625 5062.109375 2845.78125 C 5062.109375 2818.671875 5084.101562 2796.71875 5111.210938 2796.71875 C 5138.320312 2796.71875 5160.3125 2818.671875 5160.3125 2845.78125 " transform="matrix(0.1,0,0,-0.1,0,720)"/>
<path style="fill-rule:nonzero;fill:rgb(0%,0%,100%);fill-opacity:1;stroke-width:7.5;stroke-linecap:round;stroke-linejoin:round;stroke:rgb(0%,0%,0%);stroke-opacity:1;stroke-miterlimit:10;" d="M 667.695312 3721.40625 C 667.695312 3748.515625 645.703125 3770.507812 618.59375 3770.507812 C 591.484375 3770.507812 569.492188 3748.515625 569.492188 3721.40625 C 569.492188 3694.296875 591.484375 3672.304688 618.59375 3672.304688 C 645.703125 3672.304688 667.695312 3694.296875 667.695312 3721.40625 " transform="matrix(0.1,0,0,-0.1,0,720)"/>
<path style="fill-rule:nonzero;fill:rgb(0%,0%,100%);fill-opacity:1;stroke-width:7.5;stroke-linecap:round;stroke-linejoin:round;stroke:rgb(0%,0%,0%);stroke-opacity:1;stroke-miterlimit:10;" d="M 714.6875 2061.40625 C 714.6875 2088.515625 692.734375 2110.507812 665.585938 2110.507812 C 638.476562 2110.507812 616.484375 2088.515625 616.484375 2061.40625 C 616.484375 2034.296875 638.476562 2012.304688 665.585938 2012.304688 C 692.734375 2012.304688 714.6875 2034.296875 714.6875 2061.40625 " transform="matrix(0.1,0,0,-0.1,0,720)"/>
<path style="fill-rule:nonzero;fill:rgb(0%,0%,100%);fill-opacity:1;stroke-width:7.5;stroke-linecap:round;stroke-linejoin:round;stroke:rgb(0%,0%,0%);stroke-opacity:1;stroke-miterlimit:10;" d="M 1576.71875 3758.007812 C 1576.71875 3785.117188 1554.726562 3807.109375 1527.617188 3807.109375 C 1500.507812 3807.109375 1478.515625 3785.117188 1478.515625 3758.007812 C 1478.515625 3730.898438 1500.507812 3708.90625 1527.617188 3708.90625 C 1554.726562 3708.90625 1576.71875 3730.898438 1576.71875 3758.007812 " transform="matrix(0.1,0,0,-0.1,0,720)"/>
<path style="fill-rule:nonzero;fill:rgb(0%,0%,100%);fill-opacity:1;stroke-width:7.5;stroke-linecap:round;stroke-linejoin:round;stroke:rgb(0%,0%,0%);stroke-opacity:1;stroke-miterlimit:10;" d="M 1911.015625 3846.601562 C 1911.015625 3873.710938 1889.023438 3895.703125 1861.914062 3895.703125 C 1834.804688 3895.703125 1812.8125 3873.710938 1812.8125 3846.601562 C 1812.8125 3819.492188 1834.804688 3797.5 1861.914062 3797.5 C 1889.023438 3797.5 1911.015625 3819.492188 1911.015625 3846.601562 " transform="matrix(0.1,0,0,-0.1,0,720)"/>
<path style="fill-rule:nonzero;fill:rgb(0%,0%,100%);fill-opacity:1;stroke-width:7.5;stroke-linecap:round;stroke-linejoin:round;stroke:rgb(0%,0%,0%);stroke-opacity:1;stroke-miterlimit:10;" d="M 3736.796875 1827.304688 C 3736.796875 1854.414062 3714.804688 1876.40625 3687.695312 1876.40625 C 3660.585938 1876.40625 3638.59375 1854.414062 3638.59375 1827.304688 C 3638.59375 1800.195312 3660.585938 1778.203125 3687.695312 1778.203125 C 3714.804688 1778.203125 3736.796875 1800.195312 3736.796875 1827.304688 " transform="matrix(0.1,0,0,-0.1,0,720)"/>
<path style="fill-rule:nonzero;fill:rgb(0%,0%,100%);fill-opacity:1;stroke-width:7.5;stroke-linecap:round;stroke-linejoin:round;stroke:rgb(0%,0%,0%);stroke-opacity:1;stroke-miterlimit:10;" d="M 4303.789062 5499.882812 C 4303.789062 5526.992188 4281.796875 5548.984375 4254.6875 5548.984375 C 4227.578125 5548.984375 4205.585938 5526.992188 4205.585938 5499.882812 C 4205.585938 5472.773438 4227.578125 5450.78125 4254.6875 5450.78125 C 4281.796875 5450.78125 4303.789062 5472.773438 4303.789062 5499.882812 " transform="matrix(0.1,0,0,-0.1,0,720)"/>
<path style="fill-rule:nonzero;fill:rgb(0%,59.959412%,0%);fill-opacity:1;stroke-width:7.5;stroke-linecap:round;stroke-linejoin:round;stroke:rgb(0%,0%,0%);stroke-opacity:1;stroke-miterlimit:10;" d="M 5665 2855.117188 C 5665 2868.632812 5654.023438 2879.609375 5640.507812 2879.609375 C 5626.953125 2879.609375 5616.015625 2868.632812 5616.015625 2855.117188 C 5616.015625 2841.5625 5626.953125 2830.585938 5640.507812 2830.585938 C 5654.023438 2830.585938 5665 2841.5625 5665 2855.117188 " transform="matrix(0.1,0,0,-0.1,0,720)"/>
<path style="fill-rule:nonzero;fill:rgb(0%,59.959412%,0%);fill-opacity:1;stroke-width:7.5;stroke-linecap:round;stroke-linejoin:round;stroke:rgb(0%,0%,0%);stroke-opacity:1;stroke-miterlimit:10;" d="M 3505.703125 693.085938 C 3505.703125 706.640625 3494.726562 717.617188 3481.210938 717.617188 C 3467.65625 717.617188 3456.71875 706.640625 3456.71875 693.085938 C 3456.71875 679.570312 3467.65625 668.59375 3481.210938 668.59375 C 3494.726562 668.59375 3505.703125 679.570312 3505.703125 693.085938 " transform="matrix(0.1,0,0,-0.1,0,720)"/>
<path style="fill-rule:nonzero;fill:rgb(0%,59.959412%,0%);fill-opacity:1;stroke-width:7.5;stroke-linecap:round;stroke-linejoin:round;stroke:rgb(0%,0%,0%);stroke-opacity:1;stroke-miterlimit:10;" d="M 6434.296875 2756.484375 C 6434.296875 2770.039062 6423.320312 2781.015625 6409.804688 2781.015625 C 6396.289062 2781.015625 6385.3125 2770.039062 6385.3125 2756.484375 C 6385.3125 2742.96875 6396.289062 2731.992188 6409.804688 2731.992188 C 6423.320312 2731.992188 6434.296875 2742.96875 6434.296875 2756.484375 " transform="matrix(0.1,0,0,-0.1,0,720)"/>
<path style="fill-rule:nonzero;fill:rgb(0%,59.959412%,0%);fill-opacity:1;stroke-width:7.5;stroke-linecap:round;stroke-linejoin:round;stroke:rgb(0%,0%,0%);stroke-opacity:1;stroke-miterlimit:10;" d="M 6479.609375 5316.484375 C 6479.609375 5330.039062 6468.632812 5341.015625 6455.117188 5341.015625 C 6441.5625 5341.015625 6430.585938 5330.039062 6430.585938 5316.484375 C 6430.585938 5302.96875 6441.5625 5291.992188 6455.117188 5291.992188 C 6468.632812 5291.992188 6479.609375 5302.96875 6479.609375 5316.484375 " transform="matrix(0.1,0,0,-0.1,0,720)"/>
<path style="fill-rule:nonzero;fill:rgb(0%,59.959412%,0%);fill-opacity:1;stroke-width:7.5;stroke-linecap:round;stroke-linejoin:round;stroke:rgb(0%,0%,0%);stroke-opacity:1;stroke-miterlimit:10;" d="M 4488.398438 1455.117188 C 4488.398438 1468.632812 4477.421875 1479.609375 4463.90625 1479.609375 C 4450.390625 1479.609375 4439.414062 1468.632812 4439.414062 1455.117188 C 4439.414062 1441.5625 4450.390625 1430.585938 4463.90625 1430.585938 C 4477.421875 1430.585938 4488.398438 1441.5625 4488.398438 1455.117188 " transform="matrix(0.1,0,0,-0.1,0,720)"/>
<path style="fill-rule:nonzero;fill:rgb(0%,59.959412%,0%);fill-opacity:1;stroke-width:7.5;stroke-linecap:round;stroke-linejoin:round;stroke:rgb(0%,0%,0%);stroke-opacity:1;stroke-miterlimit:10;" d="M 2386.015625 5000 C 2386.015625 5013.515625 2375.039062 5024.492188 2361.484375 5024.492188 C 2347.96875 5024.492188 2336.992188 5013.515625 2336.992188 5000 C 2336.992188 4986.484375 2347.96875 4975.507812 2361.484375 4975.507812 C 2375.039062 4975.507812 2386.015625 4986.484375 2386.015625 5000 " transform="matrix(0.1,0,0,-0.1,0,720)"/>
<path style="fill-rule:nonzero;fill:rgb(0%,59.959412%,0%);fill-opacity:1;stroke-width:7.5;stroke-linecap:round;stroke-linejoin:round;stroke:rgb(0%,0%,0%);stroke-opacity:1;stroke-miterlimit:10;" d="M 6339.6875 2033.984375 C 6339.6875 2047.539062 6328.710938 2058.515625 6315.195312 2058.515625 C 6301.679688 2058.515625 6290.703125 2047.539062 6290.703125 2033.984375 C 6290.703125 2020.46875 6301.679688 2009.492188 6315.195312 2009.492188 C 6328.710938 2009.492188 6339.6875 2020.46875 6339.6875 2033.984375 " transform="matrix(0.1,0,0,-0.1,0,720)"/>
<path style="fill-rule:nonzero;fill:rgb(0%,59.959412%,0%);fill-opacity:1;stroke-width:7.5;stroke-linecap:round;stroke-linejoin:round;stroke:rgb(0%,0%,0%);stroke-opacity:1;stroke-miterlimit:10;" d="M 1646.992188 3492.890625 C 1646.992188 3506.445312 1636.015625 3517.382812 1622.5 3517.382812 C 1608.984375 3517.382812 1598.007812 3506.445312 1598.007812 3492.890625 C 1598.007812 3479.375 1608.984375 3468.398438 1622.5 3468.398438 C 1636.015625 3468.398438 1646.992188 3479.375 1646.992188 3492.890625 " transform="matrix(0.1,0,0,-0.1,0,720)"/>
<path style="fill-rule:nonzero;fill:rgb(0%,59.959412%,0%);fill-opacity:1;stroke-width:7.5;stroke-linecap:round;stroke-linejoin:round;stroke:rgb(0%,0%,0%);stroke-opacity:1;stroke-miterlimit:10;" d="M 4591.71875 888.59375 C 4591.71875 902.148438 4580.742188 913.085938 4567.1875 913.085938 C 4553.671875 913.085938 4542.695312 902.148438 4542.695312 888.59375 C 4542.695312 875.078125 4553.671875 864.101562 4567.1875 864.101562 C 4580.742188 864.101562 4591.71875 875.078125 4591.71875 888.59375 " transform="matrix(0.1,0,0,-0.1,0,720)"/>
<path style="fill-rule:nonzero;fill:rgb(0%,59.959412%,0%);fill-opacity:1;stroke-width:7.5;stroke-linecap:round;stroke-linejoin:round;stroke:rgb(0%,0%,0%);stroke-opacity:1;stroke-miterlimit:10;" d="M 1538.515625 1139.6875 C 1538.515625 1153.242188 1527.539062 1164.21875 1513.984375 1164.21875 C 1500.46875 1164.21875 1489.492188 1153.242188 1489.492188 1139.6875 C 1489.492188 1126.171875 1500.46875 1115.195312 1513.984375 1115.195312 C 1527.539062 1115.195312 1538.515625 1126.171875 1538.515625 1139.6875 " transform="matrix(0.1,0,0,-0.1,0,720)"/>
<path style="fill-rule:nonzero;fill:rgb(0%,59.959412%,0%);fill-opacity:1;stroke-width:7.5;stroke-linecap:round;stroke-linejoin:round;stroke:rgb(0%,0%,0%);stroke-opacity:1;stroke-miterlimit:10;" d="M 5745.585938 1949.101562 C 5745.585938 1962.617188 5734.648438 1973.59375 5721.09375 1973.59375 C 5707.578125 1973.59375 5696.601562 1962.617188 5696.601562 1949.101562 C 5696.601562 1935.585938 5707.578125 1924.609375 5721.09375 1924.609375 C 5734.648438 1924.609375 5745.585938 1935.585938 5745.585938 1949.101562 " transform="matrix(0.1,0,0,-0.1,0,720)"/>
<path style="fill-rule:nonzero;fill:rgb(0%,59.959412%,0%);fill-opacity:1;stroke-width:7.5;stroke-linecap:round;stroke-linejoin:round;stroke:rgb(0%,0%,0%);stroke-opacity:1;stroke-miterlimit:10;" d="M 1384.21875 5353.28125 C 1384.21875 5366.835938 1373.242188 5377.8125 1359.6875 5377.8125 C 1346.171875 5377.8125 1335.195312 5366.835938 1335.195312 5353.28125 C 1335.195312 5339.765625 1346.171875 5328.789062 1359.6875 5328.789062 C 1373.242188 5328.789062 1384.21875 5339.765625 1384.21875 5353.28125 " transform="matrix(0.1,0,0,-0.1,0,720)"/>
<path style="fill-rule:nonzero;fill:rgb(0%,59.959412%,0%);fill-opacity:1;stroke-width:7.5;stroke-linecap:round;stroke-linejoin:round;stroke:rgb(0%,0%,0%);stroke-opacity:1;stroke-miterlimit:10;" d="M 6895.390625 3357.382812 C 6895.390625 3370.9375 6884.414062 3381.914062 6870.898438 3381.914062 C 6857.382812 3381.914062 6846.40625 3370.9375 6846.40625 3357.382812 C 6846.40625 3343.867188 6857.382812 3332.890625 6870.898438 3332.890625 C 6884.414062 3332.890625 6895.390625 3343.867188 6895.390625 3357.382812 " transform="matrix(0.1,0,0,-0.1,0,720)"/>
<path style="fill-rule:nonzero;fill:rgb(0%,59.959412%,0%);fill-opacity:1;stroke-width:7.5;stroke-linecap:round;stroke-linejoin:round;stroke:rgb(0%,0%,0%);stroke-opacity:1;stroke-miterlimit:10;" d="M 3920.703125 3481.210938 C 3920.703125 3494.726562 3909.726562 3505.703125 3896.210938 3505.703125 C 3882.65625 3505.703125 3871.71875 3494.726562 3871.71875 3481.210938 C 3871.71875 3467.65625 3882.65625 3456.71875 3896.210938 3456.71875 C 3909.726562 3456.71875 3920.703125 3467.65625 3920.703125 3481.210938 " transform="matrix(0.1,0,0,-0.1,0,720)"/>
<path style="fill-rule:nonzero;fill:rgb(0%,59.959412%,0%);fill-opacity:1;stroke-width:7.5;stroke-linecap:round;stroke-linejoin:round;stroke:rgb(0%,0%,0%);stroke-opacity:1;stroke-miterlimit:10;" d="M 353.59375 3314.609375 C 353.59375 3328.125 342.617188 3339.101562 329.101562 3339.101562 C 315.585938 3339.101562 304.609375 3328.125 304.609375 3314.609375 C 304.609375 3301.054688 315.585938 3290.117188 329.101562 3290.117188 C 342.617188 3290.117188 353.59375 3301.054688 353.59375 3314.609375 " transform="matrix(0.1,0,0,-0.1,0,720)"/>
<path style="fill-rule:nonzero;fill:rgb(0%,59.959412%,0%);fill-opacity:1;stroke-width:7.5;stroke-linecap:round;stroke-linejoin:round;stroke:rgb(0%,0%,0%);stroke-opacity:1;stroke-miterlimit:10;" d="M 6744.101562 4538.59375 C 6744.101562 4552.148438 6733.125 4563.085938 6719.609375 4563.085938 C 6706.054688 4563.085938 6695.117188 4552.148438 6695.117188 4538.59375 C 6695.117188 4525.078125 6706.054688 4514.101562 6719.609375 4514.101562 C 6733.125 4514.101562 6744.101562 4525.078125 6744.101562 4538.59375 " transform="matrix(0.1,0,0,-0.1,0,720)"/>
<path style="fill-rule:nonzero;fill:rgb(0%,59.959412%,0%);fill-opacity:1;stroke-width:7.5;stroke-linecap:round;stroke-linejoin:round;stroke:rgb(0%,0%,0%);stroke-opacity:1;stroke-miterlimit:10;" d="M 965.820312 5185.78125 C 965.820312 5199.335938 954.84375 5210.3125 941.289062 5210.3125 C 927.773438 5210.3125 916.796875 5199.335938 916.796875 5185.78125 C 916.796875 5172.265625 927.773438 5161.289062 941.289062 5161.289062 C 954.84375 5161.289062 965.820312 5172.265625 965.820312 5185.78125 " transform="matrix(0.1,0,0,-0.1,0,720)"/>
<path style="fill-rule:nonzero;fill:rgb(0%,59.959412%,0%);fill-opacity:1;stroke-width:7.5;stroke-linecap:round;stroke-linejoin:round;stroke:rgb(0%,0%,0%);stroke-opacity:1;stroke-miterlimit:10;" d="M 3175.3125 6611.796875 C 3175.3125 6625.3125 3164.335938 6636.289062 3150.78125 6636.289062 C 3137.265625 6636.289062 3126.289062 6625.3125 3126.289062 6611.796875 C 3126.289062 6598.28125 3137.265625 6587.304688 3150.78125 6587.304688 C 3164.335938 6587.304688 3175.3125 6598.28125 3175.3125 6611.796875 " transform="matrix(0.1,0,0,-0.1,0,720)"/>
<path style="fill-rule:nonzero;fill:rgb(0%,59.959412%,0%);fill-opacity:1;stroke-width:7.5;stroke-linecap:round;stroke-linejoin:round;stroke:rgb(0%,0%,0%);stroke-opacity:1;stroke-miterlimit:10;" d="M 4000.78125 1919.414062 C 4000.78125 1932.929688 3989.84375 1943.90625 3976.289062 1943.90625 C 3962.773438 1943.90625 3951.796875 1932.929688 3951.796875 1919.414062 C 3951.796875 1905.859375 3962.773438 1894.882812 3976.289062 1894.882812 C 3989.84375 1894.882812 4000.78125 1905.859375 4000.78125 1919.414062 " transform="matrix(0.1,0,0,-0.1,0,720)"/>
<path style="fill-rule:nonzero;fill:rgb(0%,59.959412%,0%);fill-opacity:1;stroke-width:7.5;stroke-linecap:round;stroke-linejoin:round;stroke:rgb(0%,0%,0%);stroke-opacity:1;stroke-miterlimit:10;" d="M 3955.3125 423.398438 C 3955.3125 436.914062 3944.335938 447.890625 3930.78125 447.890625 C 3917.265625 447.890625 3906.289062 436.914062 3906.289062 423.398438 C 3906.289062 409.882812 3917.265625 398.90625 3930.78125 398.90625 C 3944.335938 398.90625 3955.3125 409.882812 3955.3125 423.398438 " transform="matrix(0.1,0,0,-0.1,0,720)"/>
<path style="fill-rule:nonzero;fill:rgb(0%,59.959412%,0%);fill-opacity:1;stroke-width:7.5;stroke-linecap:round;stroke-linejoin:round;stroke:rgb(0%,0%,0%);stroke-opacity:1;stroke-miterlimit:10;" d="M 4667.890625 4373.398438 C 4667.890625 4386.914062 4656.914062 4397.890625 4643.398438 4397.890625 C 4629.882812 4397.890625 4618.90625 4386.914062 4618.90625 4373.398438 C 4618.90625 4359.882812 4629.882812 4348.90625 4643.398438 4348.90625 C 4656.914062 4348.90625 4667.890625 4359.882812 4667.890625 4373.398438 " transform="matrix(0.1,0,0,-0.1,0,720)"/>
<path style="fill-rule:nonzero;fill:rgb(0%,59.959412%,0%);fill-opacity:1;stroke-width:7.5;stroke-linecap:round;stroke-linejoin:round;stroke:rgb(0%,0%,0%);stroke-opacity:1;stroke-miterlimit:10;" d="M 3448.28125 5807.695312 C 3448.28125 5821.210938 3437.34375 5832.1875 3423.789062 5832.1875 C 3410.273438 5832.1875 3399.296875 5821.210938 3399.296875 5807.695312 C 3399.296875 5794.179688 3410.273438 5783.203125 3423.789062 5783.203125 C 3437.34375 5783.203125 3448.28125 5794.179688 3448.28125 5807.695312 " transform="matrix(0.1,0,0,-0.1,0,720)"/>
<path style="fill-rule:nonzero;fill:rgb(0%,59.959412%,0%);fill-opacity:1;stroke-width:7.5;stroke-linecap:round;stroke-linejoin:round;stroke:rgb(0%,0%,0%);stroke-opacity:1;stroke-miterlimit:10;" d="M 1076.09375 1815.898438 C 1076.09375 1829.414062 1065.117188 1840.390625 1051.601562 1840.390625 C 1038.085938 1840.390625 1027.109375 1829.414062 1027.109375 1815.898438 C 1027.109375 1802.382812 1038.085938 1791.40625 1051.601562 1791.40625 C 1065.117188 1791.40625 1076.09375 1802.382812 1076.09375 1815.898438 " transform="matrix(0.1,0,0,-0.1,0,720)"/>
<path style="fill-rule:nonzero;fill:rgb(0%,59.959412%,0%);fill-opacity:1;stroke-width:7.5;stroke-linecap:round;stroke-linejoin:round;stroke:rgb(0%,0%,0%);stroke-opacity:1;stroke-miterlimit:10;" d="M 3745.78125 1451.796875 C 3745.78125 1465.3125 3734.84375 1476.289062 3721.289062 1476.289062 C 3707.773438 1476.289062 3696.796875 1465.3125 3696.796875 1451.796875 C 3696.796875 1438.28125 3707.773438 1427.304688 3721.289062 1427.304688 C 3734.84375 1427.304688 3745.78125 1438.28125 3745.78125 1451.796875 " transform="matrix(0.1,0,0,-0.1,0,720)"/>
<path style="fill-rule:nonzero;fill:rgb(0%,59.959412%,0%);fill-opacity:1;stroke-width:7.5;stroke-linecap:round;stroke-linejoin:round;stroke:rgb(0%,0%,0%);stroke-opacity:1;stroke-miterlimit:10;" d="M 2501.484375 693.203125 C 2501.484375 706.71875 2490.546875 717.695312 2476.992188 717.695312 C 2463.476562 717.695312 2452.5 706.71875 2452.5 693.203125 C 2452.5 679.6875 2463.476562 668.710938 2476.992188 668.710938 C 2490.546875 668.710938 2501.484375 679.6875 2501.484375 693.203125 " transform="matrix(0.1,0,0,-0.1,0,720)"/>
<path style="fill-rule:nonzero;fill:rgb(0%,59.959412%,0%);fill-opacity:1;stroke-width:7.5;stroke-linecap:round;stroke-linejoin:round;stroke:rgb(0%,0%,0%);stroke-opacity:1;stroke-miterlimit:10;" d="M 6743.789062 2750.195312 C 6743.789062 2763.710938 6732.8125 2774.6875 6719.296875 2774.6875 C 6705.78125 2774.6875 6694.804688 2763.710938 6694.804688 2750.195312 C 6694.804688 2736.679688 6705.78125 2725.703125 6719.296875 2725.703125 C 6732.8125 2725.703125 6743.789062 2736.679688 6743.789062 2750.195312 " transform="matrix(0.1,0,0,-0.1,0,720)"/>
<path style="fill-rule:nonzero;fill:rgb(0%,59.959412%,0%);fill-opacity:1;stroke-width:7.5;stroke-linecap:round;stroke-linejoin:round;stroke:rgb(0%,0%,0%);stroke-opacity:1;stroke-miterlimit:10;" d="M 5115.507812 6500.78125 C 5115.507812 6514.335938 5104.53125 6525.3125 5091.015625 6525.3125 C 5077.460938 6525.3125 5066.484375 6514.335938 5066.484375 6500.78125 C 5066.484375 6487.265625 5077.460938 6476.289062 5091.015625 6476.289062 C 5104.53125 6476.289062 5115.507812 6487.265625 5115.507812 6500.78125 " transform="matrix(0.1,0,0,-0.1,0,720)"/>
<path style="fill-rule:nonzero;fill:rgb(0%,59.959412%,0%);fill-opacity:1;stroke-width:7.5;stroke-linecap:round;stroke-linejoin:round;stroke:rgb(0%,0%,0%);stroke-opacity:1;stroke-miterlimit:10;" d="M 6672.1875 3646.210938 C 6672.1875 3659.726562 6661.210938 3670.703125 6647.695312 3670.703125 C 6634.179688 3670.703125 6623.203125 3659.726562 6623.203125 3646.210938 C 6623.203125 3632.65625 6634.179688 3621.71875 6647.695312 3621.71875 C 6661.210938 3621.71875 6672.1875 3632.65625 6672.1875 3646.210938 " transform="matrix(0.1,0,0,-0.1,0,720)"/>
<path style="fill-rule:nonzero;fill:rgb(0%,59.959412%,0%);fill-opacity:1;stroke-width:7.5;stroke-linecap:round;stroke-linejoin:round;stroke:rgb(0%,0%,0%);stroke-opacity:1;stroke-miterlimit:10;" d="M 6146.992188 3720.703125 C 6146.992188 3734.21875 6136.015625 3745.195312 6122.5 3745.195312 C 6108.984375 3745.195312 6098.007812 3734.21875 6098.007812 3720.703125 C 6098.007812 3707.1875 6108.984375 3696.210938 6122.5 3696.210938 C 6136.015625 3696.210938 6146.992188 3707.1875 6146.992188 3720.703125 " transform="matrix(0.1,0,0,-0.1,0,720)"/>
<path style="fill-rule:nonzero;fill:rgb(0%,59.959412%,0%);fill-opacity:1;stroke-width:7.5;stroke-linecap:round;stroke-linejoin:round;stroke:rgb(0%,0%,0%);stroke-opacity:1;stroke-miterlimit:10;" d="M 3828.085938 3165.585938 C 3828.085938 3179.140625 3817.148438 3190.117188 3803.59375 3190.117188 C 3790.078125 3190.117188 3779.101562 3179.140625 3779.101562 3165.585938 C 3779.101562 3152.070312 3790.078125 3141.09375 3803.59375 3141.09375 C 3817.148438 3141.09375 3828.085938 3152.070312 3828.085938 3165.585938 " transform="matrix(0.1,0,0,-0.1,0,720)"/>
<path style="fill-rule:nonzero;fill:rgb(0%,59.959412%,0%);fill-opacity:1;stroke-width:7.5;stroke-linecap:round;stroke-linejoin:round;stroke:rgb(0%,0%,0%);stroke-opacity:1;stroke-miterlimit:10;" d="M 3485.195312 6273.710938 C 3485.195312 6287.226562 3474.21875 6298.203125 3460.703125 6298.203125 C 3447.1875 6298.203125 3436.210938 6287.226562 3436.210938 6273.710938 C 3436.210938 6260.15625 3447.1875 6249.21875 3460.703125 6249.21875 C 3474.21875 6249.21875 3485.195312 6260.15625 3485.195312 6273.710938 " transform="matrix(0.1,0,0,-0.1,0,720)"/>
<path style="fill-rule:nonzero;fill:rgb(0%,59.959412%,0%);fill-opacity:1;stroke-width:7.5;stroke-linecap:round;stroke-linejoin:round;stroke:rgb(0%,0%,0%);stroke-opacity:1;stroke-miterlimit:10;" d="M 1867.8125 6027.695312 C 1867.8125 6041.210938 1856.835938 6052.1875 1843.28125 6052.1875 C 1829.765625 6052.1875 1818.789062 6041.210938 1818.789062 6027.695312 C 1818.789062 6014.179688 1829.765625 6003.203125 1843.28125 6003.203125 C 1856.835938 6003.203125 1867.8125 6014.179688 1867.8125 6027.695312 " transform="matrix(0.1,0,0,-0.1,0,720)"/>
<path style="fill-rule:nonzero;fill:rgb(0%,59.959412%,0%);fill-opacity:1;stroke-width:7.5;stroke-linecap:round;stroke-linejoin:round;stroke:rgb(0%,0%,0%);stroke-opacity:1;stroke-miterlimit:10;" d="M 2821.992188 2640.898438 C 2821.992188 2654.414062 2811.015625 2665.390625 2797.5 2665.390625 C 2783.984375 2665.390625 2773.007812 2654.414062 2773.007812 2640.898438 C 2773.007812 2627.382812 2783.984375 2616.40625 2797.5 2616.40625 C 2811.015625 2616.40625 2821.992188 2627.382812 2821.992188 2640.898438 " transform="matrix(0.1,0,0,-0.1,0,720)"/>
<path style="fill-rule:nonzero;fill:rgb(0%,59.959412%,0%);fill-opacity:1;stroke-width:7.5;stroke-linecap:round;stroke-linejoin:round;stroke:rgb(0%,0%,0%);stroke-opacity:1;stroke-miterlimit:10;" d="M 1188.789062 3544.414062 C 1188.789062 3557.929688 1177.8125 3568.90625 1164.296875 3568.90625 C 1150.78125 3568.90625 1139.804688 3557.929688 1139.804688 3544.414062 C 1139.804688 3530.859375 1150.78125 3519.882812 1164.296875 3519.882812 C 1177.8125 3519.882812 1188.789062 3530.859375 1188.789062 3544.414062 " transform="matrix(0.1,0,0,-0.1,0,720)"/>
<path style="fill-rule:nonzero;fill:rgb(0%,59.959412%,0%);fill-opacity:1;stroke-width:7.5;stroke-linecap:round;stroke-linejoin:round;stroke:rgb(0%,0%,0%);stroke-opacity:1;stroke-miterlimit:10;" d="M 6660.507812 3028.789062 C 6660.507812 3042.34375 6649.53125 3053.28125 6636.015625 3053.28125 C 6622.460938 3053.28125 6611.484375 3042.34375 6611.484375 3028.789062 C 6611.484375 3015.273438 6622.460938 3004.296875 6636.015625 3004.296875 C 6649.53125 3004.296875 6660.507812 3015.273438 6660.507812 3028.789062 " transform="matrix(0.1,0,0,-0.1,0,720)"/>
<path style="fill-rule:nonzero;fill:rgb(0%,59.959412%,0%);fill-opacity:1;stroke-width:7.5;stroke-linecap:round;stroke-linejoin:round;stroke:rgb(0%,0%,0%);stroke-opacity:1;stroke-miterlimit:10;" d="M 863.90625 4873.710938 C 863.90625 4887.226562 852.929688 4898.203125 839.414062 4898.203125 C 825.859375 4898.203125 814.882812 4887.226562 814.882812 4873.710938 C 814.882812 4860.15625 825.859375 4849.21875 839.414062 4849.21875 C 852.929688 4849.21875 863.90625 4860.15625 863.90625 4873.710938 " transform="matrix(0.1,0,0,-0.1,0,720)"/>
<path style="fill-rule:nonzero;fill:rgb(0%,59.959412%,0%);fill-opacity:1;stroke-width:7.5;stroke-linecap:round;stroke-linejoin:round;stroke:rgb(0%,0%,0%);stroke-opacity:1;stroke-miterlimit:10;" d="M 3220.195312 329.101562 C 3220.195312 342.617188 3209.21875 353.59375 3195.703125 353.59375 C 3182.1875 353.59375 3171.210938 342.617188 3171.210938 329.101562 C 3171.210938 315.585938 3182.1875 304.609375 3195.703125 304.609375 C 3209.21875 304.609375 3220.195312 315.585938 3220.195312 329.101562 " transform="matrix(0.1,0,0,-0.1,0,720)"/>
<path style="fill-rule:nonzero;fill:rgb(0%,59.959412%,0%);fill-opacity:1;stroke-width:7.5;stroke-linecap:round;stroke-linejoin:round;stroke:rgb(0%,0%,0%);stroke-opacity:1;stroke-miterlimit:10;" d="M 4559.609375 577.1875 C 4559.609375 590.742188 4548.632812 601.679688 4535.117188 601.679688 C 4521.5625 601.679688 4510.585938 590.742188 4510.585938 577.1875 C 4510.585938 563.671875 4521.5625 552.695312 4535.117188 552.695312 C 4548.632812 552.695312 4559.609375 563.671875 4559.609375 577.1875 " transform="matrix(0.1,0,0,-0.1,0,720)"/>
<path style="fill-rule:nonzero;fill:rgb(0%,59.959412%,0%);fill-opacity:1;stroke-width:7.5;stroke-linecap:round;stroke-linejoin:round;stroke:rgb(0%,0%,0%);stroke-opacity:1;stroke-miterlimit:10;" d="M 5922.382812 3909.101562 C 5922.382812 3922.617188 5911.445312 3933.59375 5897.890625 3933.59375 C 5884.375 3933.59375 5873.398438 3922.617188 5873.398438 3909.101562 C 5873.398438 3895.585938 5884.375 3884.609375 5897.890625 3884.609375 C 5911.445312 3884.609375 5922.382812 3895.585938 5922.382812 3909.101562 " transform="matrix(0.1,0,0,-0.1,0,720)"/>
<path style="fill-rule:nonzero;fill:rgb(0%,59.959412%,0%);fill-opacity:1;stroke-width:7.5;stroke-linecap:round;stroke-linejoin:round;stroke:rgb(0%,0%,0%);stroke-opacity:1;stroke-miterlimit:10;" d="M 4296.914062 667.8125 C 4296.914062 681.328125 4285.9375 692.304688 4272.382812 692.304688 C 4258.867188 692.304688 4247.890625 681.328125 4247.890625 667.8125 C 4247.890625 654.257812 4258.867188 643.320312 4272.382812 643.320312 C 4285.9375 643.320312 4296.914062 654.257812 4296.914062 667.8125 " transform="matrix(0.1,0,0,-0.1,0,720)"/>
<path style="fill-rule:nonzero;fill:rgb(0%,59.959412%,0%);fill-opacity:1;stroke-width:7.5;stroke-linecap:round;stroke-linejoin:round;stroke:rgb(0%,0%,0%);stroke-opacity:1;stroke-miterlimit:10;" d="M 2100.507812 6266.796875 C 2100.507812 6280.3125 2089.53125 6291.289062 2076.015625 6291.289062 C 2062.460938 6291.289062 2051.484375 6280.3125 2051.484375 6266.796875 C 2051.484375 6253.28125 2062.460938 6242.304688 2076.015625 6242.304688 C 2089.53125 6242.304688 2100.507812 6253.28125 2100.507812 6266.796875 " transform="matrix(0.1,0,0,-0.1,0,720)"/>
<path style="fill-rule:nonzero;fill:rgb(0%,59.959412%,0%);fill-opacity:1;stroke-width:7.5;stroke-linecap:round;stroke-linejoin:round;stroke:rgb(0%,0%,0%);stroke-opacity:1;stroke-miterlimit:10;" d="M 4807.5 2381.289062 C 4807.5 2394.84375 4796.523438 2405.78125 4783.007812 2405.78125 C 4769.453125 2405.78125 4758.515625 2394.84375 4758.515625 2381.289062 C 4758.515625 2367.773438 4769.453125 2356.796875 4783.007812 2356.796875 C 4796.523438 2356.796875 4807.5 2367.773438 4807.5 2381.289062 " transform="matrix(0.1,0,0,-0.1,0,720)"/>
<path style="fill-rule:nonzero;fill:rgb(0%,59.959412%,0%);fill-opacity:1;stroke-width:7.5;stroke-linecap:round;stroke-linejoin:round;stroke:rgb(0%,0%,0%);stroke-opacity:1;stroke-miterlimit:10;" d="M 970.117188 2255.3125 C 970.117188 2268.828125 959.140625 2279.804688 945.585938 2279.804688 C 932.070312 2279.804688 921.09375 2268.828125 921.09375 2255.3125 C 921.09375 2241.757812 932.070312 2230.78125 945.585938 2230.78125 C 959.140625 2230.78125 970.117188 2241.757812 970.117188 2255.3125 " transform="matrix(0.1,0,0,-0.1,0,720)"/>
<path style="fill-rule:nonzero;fill:rgb(0%,59.959412%,0%);fill-opacity:1;stroke-width:7.5;stroke-linecap:round;stroke-linejoin:round;stroke:rgb(0%,0%,0%);stroke-opacity:1;stroke-miterlimit:10;" d="M 5097.695312 4306.289062 C 5097.695312 4319.84375 5086.71875 4330.78125 5073.203125 4330.78125 C 5059.6875 4330.78125 5048.710938 4319.84375 5048.710938 4306.289062 C 5048.710938 4292.773438 5059.6875 4281.796875 5073.203125 4281.796875 C 5086.71875 4281.796875 5097.695312 4292.773438 5097.695312 4306.289062 " transform="matrix(0.1,0,0,-0.1,0,720)"/>
<path style="fill-rule:nonzero;fill:rgb(0%,59.959412%,0%);fill-opacity:1;stroke-width:7.5;stroke-linecap:round;stroke-linejoin:round;stroke:rgb(0%,0%,0%);stroke-opacity:1;stroke-miterlimit:10;" d="M 4133.398438 6870.898438 C 4133.398438 6884.414062 4122.421875 6895.390625 4108.90625 6895.390625 C 4095.390625 6895.390625 4084.414062 6884.414062 4084.414062 6870.898438 C 4084.414062 6857.382812 4095.390625 6846.40625 4108.90625 6846.40625 C 4122.421875 6846.40625 4133.398438 6857.382812 4133.398438 6870.898438 " transform="matrix(0.1,0,0,-0.1,0,720)"/>
<path style="fill-rule:nonzero;fill:rgb(0%,59.959412%,0%);fill-opacity:1;stroke-width:7.5;stroke-linecap:round;stroke-linejoin:round;stroke:rgb(0%,0%,0%);stroke-opacity:1;stroke-miterlimit:10;" d="M 4886.09375 6204.882812 C 4886.09375 6218.4375 4875.117188 6229.414062 4861.601562 6229.414062 C 4848.085938 6229.414062 4837.109375 6218.4375 4837.109375 6204.882812 C 4837.109375 6191.367188 4848.085938 6180.390625 4861.601562 6180.390625 C 4875.117188 6180.390625 4886.09375 6191.367188 4886.09375 6204.882812 " transform="matrix(0.1,0,0,-0.1,0,720)"/>
<path style="fill-rule:nonzero;fill:rgb(0%,59.959412%,0%);fill-opacity:1;stroke-width:7.5;stroke-linecap:round;stroke-linejoin:round;stroke:rgb(0%,0%,0%);stroke-opacity:1;stroke-miterlimit:10;" d="M 1193.398438 1364.101562 C 1193.398438 1377.617188 1182.421875 1388.59375 1168.90625 1388.59375 C 1155.351562 1388.59375 1144.414062 1377.617188 1144.414062 1364.101562 C 1144.414062 1350.585938 1155.351562 1339.609375 1168.90625 1339.609375 C 1182.421875 1339.609375 1193.398438 1350.585938 1193.398438 1364.101562 " transform="matrix(0.1,0,0,-0.1,0,720)"/>
<path style="fill-rule:nonzero;fill:rgb(0%,59.959412%,0%);fill-opacity:1;stroke-width:7.5;stroke-linecap:round;stroke-linejoin:round;stroke:rgb(0%,0%,0%);stroke-opacity:1;stroke-miterlimit:10;" d="M 5513.59375 5808.515625 C 5513.59375 5822.03125 5502.617188 5833.007812 5489.101562 5833.007812 C 5475.585938 5833.007812 5464.609375 5822.03125 5464.609375 5808.515625 C 5464.609375 5794.960938 5475.585938 5783.984375 5489.101562 5783.984375 C 5502.617188 5783.984375 5513.59375 5794.960938 5513.59375 5808.515625 " transform="matrix(0.1,0,0,-0.1,0,720)"/>
<path style="fill-rule:nonzero;fill:rgb(0%,59.959412%,0%);fill-opacity:1;stroke-width:7.5;stroke-linecap:round;stroke-linejoin:round;stroke:rgb(0%,0%,0%);stroke-opacity:1;stroke-miterlimit:10;" d="M 1365.585938 3342.617188 C 1365.585938 3356.132812 1354.648438 3367.109375 1341.09375 3367.109375 C 1327.578125 3367.109375 1316.601562 3356.132812 1316.601562 3342.617188 C 1316.601562 3329.0625 1327.578125 3318.085938 1341.09375 3318.085938 C 1354.648438 3318.085938 1365.585938 3329.0625 1365.585938 3342.617188 " transform="matrix(0.1,0,0,-0.1,0,720)"/>
<path style="fill-rule:nonzero;fill:rgb(0%,59.959412%,0%);fill-opacity:1;stroke-width:7.5;stroke-linecap:round;stroke-linejoin:round;stroke:rgb(0%,0%,0%);stroke-opacity:1;stroke-miterlimit:10;" d="M 2569.296875 2102.304688 C 2569.296875 2115.820312 2558.320312 2126.796875 2544.804688 2126.796875 C 2531.289062 2126.796875 2520.3125 2115.820312 2520.3125 2102.304688 C 2520.3125 2088.789062 2531.289062 2077.8125 2544.804688 2077.8125 C 2558.320312 2077.8125 2569.296875 2088.789062 2569.296875 2102.304688 " transform="matrix(0.1,0,0,-0.1,0,720)"/>
<path style="fill-rule:nonzero;fill:rgb(0%,59.959412%,0%);fill-opacity:1;stroke-width:7.5;stroke-linecap:round;stroke-linejoin:round;stroke:rgb(0%,0%,0%);stroke-opacity:1;stroke-miterlimit:10;" d="M 2729.609375 6518.789062 C 2729.609375 6532.34375 2718.632812 6543.28125 2705.117188 6543.28125 C 2691.5625 6543.28125 2680.585938 6532.34375 2680.585938 6518.789062 C 2680.585938 6505.273438 2691.5625 6494.296875 2705.117188 6494.296875 C 2718.632812 6494.296875 2729.609375 6505.273438 2729.609375 6518.789062 " transform="matrix(0.1,0,0,-0.1,0,720)"/>
<path style="fill-rule:nonzero;fill:rgb(0%,59.959412%,0%);fill-opacity:1;stroke-width:7.5;stroke-linecap:round;stroke-linejoin:round;stroke:rgb(0%,0%,0%);stroke-opacity:1;stroke-miterlimit:10;" d="M 5796.40625 3604.882812 C 5796.40625 3618.4375 5785.429688 3629.414062 5771.914062 3629.414062 C 5758.359375 3629.414062 5747.382812 3618.4375 5747.382812 3604.882812 C 5747.382812 3591.367188 5758.359375 3580.390625 5771.914062 3580.390625 C 5785.429688 3580.390625 5796.40625 3591.367188 5796.40625 3604.882812 " transform="matrix(0.1,0,0,-0.1,0,720)"/>
<path style="fill-rule:nonzero;fill:rgb(0%,59.959412%,0%);fill-opacity:1;stroke-width:7.5;stroke-linecap:round;stroke-linejoin:round;stroke:rgb(0%,0%,0%);stroke-opacity:1;stroke-miterlimit:10;" d="M 3016.289062 5601.914062 C 3016.289062 5615.429688 3005.3125 5626.40625 2991.796875 5626.40625 C 2978.28125 5626.40625 2967.304688 5615.429688 2967.304688 5601.914062 C 2967.304688 5588.359375 2978.28125 5577.382812 2991.796875 5577.382812 C 3005.3125 5577.382812 3016.289062 5588.359375 3016.289062 5601.914062 " transform="matrix(0.1,0,0,-0.1,0,720)"/>
<path style="fill-rule:nonzero;fill:rgb(0%,59.959412%,0%);fill-opacity:1;stroke-width:7.5;stroke-linecap:round;stroke-linejoin:round;stroke:rgb(0%,0%,0%);stroke-opacity:1;stroke-miterlimit:10;" d="M 2662.695312 415.3125 C 2662.695312 428.828125 2651.71875 439.804688 2638.203125 439.804688 C 2624.6875 439.804688 2613.710938 428.828125 2613.710938 415.3125 C 2613.710938 401.757812 2624.6875 390.820312 2638.203125 390.820312 C 2651.71875 390.820312 2662.695312 401.757812 2662.695312 415.3125 " transform="matrix(0.1,0,0,-0.1,0,720)"/>
</g>
</svg>
